<?xml version="1.0" standalone="no"?>
<!DOCTYPE svg PUBLIC "-//W3C//DTD SVG 20010904//EN"
 "http://www.w3.org/TR/2001/REC-SVG-20010904/DTD/svg10.dtd">
<svg version="1.0" xmlns="http://www.w3.org/2000/svg"
 width="446.000000pt" height="446.000000pt" viewBox="0 0 446.000000 446.000000"
 preserveAspectRatio="xMidYMid meet">

<g transform="translate(0.000000,446.000000) scale(0.100000,-0.100000)"
fill="#000000" stroke="none">
<path d="M2017 4424 c-4 -4 -7 -58 -7 -120 l0 -113 -32 -5 c-169 -26 -233 -38
-293 -55 -38 -11 -72 -18 -75 -16 -6 3 -17 31 -72 178 -8 20 -15 26 -27 21 -9
-3 -70 -27 -136 -52 -66 -25 -121 -46 -122 -47 -1 0 16 -48 37 -105 22 -57 40
-105 40 -107 0 -1 -28 -17 -62 -34 -35 -17 -96 -51 -135 -76 -40 -25 -77 -43
-82 -41 -4 1 -36 38 -70 81 -34 42 -63 77 -65 77 -8 0 -221 -171 -224 -179 -1
-5 27 -45 63 -91 l66 -82 -63 -67 c-35 -36 -84 -90 -109 -119 l-47 -54 -83 56
c-45 31 -85 56 -89 56 -8 0 -160 -226 -160 -237 0 -5 31 -28 68 -52 112 -75
108 -56 47 -184 -29 -62 -57 -125 -60 -140 -4 -16 -13 -31 -20 -33 -7 -3 -52
6 -101 20 -49 14 -92 22 -95 18 -9 -11 -83 -272 -78 -276 2 -2 42 -13 89 -26
47 -12 90 -26 96 -31 8 -7 8 -25 2 -62 -6 -28 -15 -99 -21 -157 l-12 -105 -93
-3 -92 -3 0 -149 0 -150 100 6 c81 6 100 4 104 -7 4 -17 57 -278 59 -298 1
-10 -26 -25 -80 -45 -45 -17 -85 -34 -88 -38 -4 -4 15 -68 41 -142 38 -106 52
-135 64 -130 8 4 50 19 93 35 l78 29 17 -31 c9 -17 45 -79 80 -137 34 -59 60
-112 58 -119 -3 -6 -36 -35 -75 -64 l-69 -52 86 -114 c47 -62 91 -113 98 -113
7 0 38 21 71 47 32 25 63 51 70 56 9 6 39 -15 100 -71 48 -44 104 -93 123
-110 l34 -30 -52 -75 c-29 -41 -52 -79 -52 -84 0 -9 224 -163 237 -163 4 1 31
34 58 75 28 41 55 75 61 75 6 0 58 -22 116 -49 57 -27 116 -53 131 -56 46 -12
49 -25 22 -111 -14 -43 -25 -84 -25 -91 0 -7 26 -20 58 -28 31 -9 92 -28 136
-41 43 -14 80 -23 82 -21 3 2 16 44 30 93 14 49 27 91 29 92 2 2 57 -3 122
-12 65 -9 136 -17 158 -19 l40 -2 2 -55 c2 -30 5 -74 9 -97 l5 -43 144 0 144
0 3 102 3 103 125 23 c69 13 141 24 160 25 l35 2 29 -83 c15 -45 33 -82 40
-82 12 0 255 85 262 92 2 3 -10 44 -26 93 -17 49 -30 90 -30 91 0 0 30 16 68
34 37 19 99 53 138 77 39 24 75 43 80 43 5 0 31 -30 58 -66 27 -35 53 -67 58
-70 5 -3 61 34 124 82 100 76 113 89 101 103 -44 53 -97 129 -97 139 0 6 9 17
20 25 12 8 59 57 106 108 47 52 90 96 95 97 5 2 42 -19 80 -48 39 -28 72 -50
74 -48 1 2 24 35 51 73 26 39 63 91 81 117 18 26 33 49 33 51 0 2 -32 25 -70
52 -39 27 -70 54 -70 62 0 7 22 57 49 111 26 53 54 114 60 134 7 21 17 40 22
44 5 3 46 -7 90 -21 44 -15 82 -25 84 -24 9 11 85 271 81 278 -3 4 -41 18 -86
31 -91 26 -86 15 -65 145 8 50 15 116 15 147 l0 56 100 7 100 8 0 143 0 143
-102 3 c-102 3 -103 3 -106 28 -1 14 -14 83 -28 153 -14 70 -24 132 -22 138 2
6 37 22 78 35 41 14 78 29 82 33 4 4 -13 68 -38 143 l-46 136 -86 -29 c-47
-16 -91 -29 -96 -29 -6 0 -23 26 -38 58 -15 31 -50 95 -78 141 -28 46 -49 85
-48 86 2 1 38 28 80 59 l77 56 -81 110 c-44 61 -85 113 -90 116 -5 4 -41 -16
-79 -42 -38 -27 -76 -53 -83 -58 -9 -6 -27 5 -62 41 -27 27 -80 77 -118 110
l-68 61 56 78 c31 44 55 84 54 89 -2 12 -212 165 -226 165 -6 0 -21 -15 -33
-32 -49 -72 -94 -128 -101 -128 -4 0 -64 27 -131 60 -68 33 -129 60 -135 60
-22 0 -21 20 8 106 17 48 30 93 30 100 0 7 -57 31 -136 57 -117 38 -136 41
-143 28 -4 -9 -20 -55 -35 -103 -21 -66 -33 -88 -46 -88 -9 0 -61 7 -116 15
-54 8 -118 15 -141 15 l-42 0 -3 118 -3 117 -141 3 c-77 1 -143 -1 -147 -4z
m523 -432 c566 -103 1058 -470 1315 -983 127 -252 186 -506 186 -801 -1 -345
-92 -667 -270 -948 -162 -256 -424 -501 -686 -640 -775 -411 -1726 -233 -2290
430 -194 228 -321 487 -392 797 -25 110 -27 134 -28 358 0 228 1 246 29 370
81 369 256 681 525 937 272 261 613 427 1001 489 157 25 445 21 610 -9z"/>
<path d="M1968 3945 c-535 -73 -1017 -386 -1286 -836 -106 -177 -176 -353
-219 -558 -25 -114 -27 -146 -28 -336 0 -180 4 -226 23 -323 49 -243 155 -493
290 -681 81 -114 226 -269 331 -353 231 -186 516 -316 814 -370 175 -32 450
-32 626 0 301 55 593 189 823 379 407 336 639 826 638 1347 -2 877 -659 1615
-1543 1731 -140 18 -335 18 -469 0z m432 -21 c76 -6 222 -35 324 -65 456 -132
891 -513 1079 -944 91 -208 131 -364 149 -587 10 -115 9 -159 -5 -290 -25
-231 -63 -369 -145 -535 -38 -77 -89 -171 -115 -210 -410 -628 -1162 -929
-1891 -756 -512 121 -932 456 -1172 935 -263 524 -217 1183 119 1683 82 123
126 176 229 277 199 194 442 340 723 431 186 61 436 83 705 61z"/>
<path d="M2143 3810 c-43 -18 -58 -90 -25 -128 26 -32 63 -37 95 -12 32 25 35
40 7 40 -11 0 -20 -4 -20 -9 0 -12 -27 -22 -44 -15 -20 8 -28 48 -16 78 10 28
30 33 60 14 29 -18 39 1 11 23 -25 21 -35 22 -68 9z"/>
<path d="M2040 3730 c0 -73 2 -80 20 -80 18 0 19 5 14 68 -7 79 -10 92 -24 92
-6 0 -10 -32 -10 -80z"/>
<path d="M2288 3736 c-29 -59 -34 -75 -23 -80 8 -3 19 3 25 14 14 27 66 27 75
1 8 -26 35 -36 35 -13 -1 36 -45 147 -60 150 -10 2 -28 -22 -52 -72z m59 -22
c-3 -4 -13 -4 -22 0 -13 5 -14 10 -4 28 l12 23 10 -23 c6 -12 7 -25 4 -28z"/>
<path d="M1965 3753 l6 -48 -39 43 c-59 63 -73 52 -54 -43 10 -49 19 -75 28
-75 16 0 16 0 5 60 l-9 45 43 -50 c33 -38 47 -47 56 -38 16 16 -9 153 -28 153
-11 0 -13 -11 -8 -47z"/>
<path d="M2447 3783 c-3 -5 -8 -38 -12 -74 l-7 -66 47 -7 c26 -4 50 -5 53 -1
9 9 -20 25 -47 25 -25 0 -25 2 -5 103 4 20 2 27 -10 27 -8 0 -17 -3 -19 -7z"/>
<path d="M1795 3736 c6 -30 4 -34 -20 -40 -31 -8 -30 -9 -41 26 -6 19 -13 25
-22 19 -11 -7 -11 -19 4 -72 19 -70 27 -85 42 -75 7 4 7 17 2 37 -8 27 -6 31
16 39 34 13 31 15 44 -24 8 -24 16 -33 26 -29 8 3 12 13 10 22 -3 9 -12 42
-21 74 -11 36 -22 57 -31 57 -11 0 -13 -8 -9 -34z"/>
<path d="M2636 3690 c-20 -72 -12 -96 39 -106 46 -8 58 3 80 72 15 47 15 58 4
65 -11 6 -18 -5 -32 -51 -13 -45 -22 -60 -36 -60 -34 0 -43 23 -26 70 19 53
19 70 1 70 -8 0 -20 -24 -30 -60z"/>
<path d="M1572 3690 c-13 -12 -22 -33 -22 -50 0 -38 44 -90 76 -90 27 0 78 44
72 62 -8 23 -28 19 -38 -6 -13 -36 -45 -34 -65 4 -19 36 -19 45 1 64 11 11 21
13 33 7 10 -6 23 -6 32 0 12 8 12 10 -1 19 -25 16 -65 11 -88 -10z"/>
<path d="M2804 3665 c-7 -19 -21 -51 -29 -71 -18 -44 -18 -44 -2 -44 7 0 22
19 34 42 l20 43 7 -57 c5 -37 13 -58 23 -62 9 -4 17 -5 18 -4 10 16 55 128 55
137 0 6 -7 11 -15 11 -8 0 -19 -17 -26 -40 -13 -44 -29 -53 -29 -16 0 84 -32
119 -56 61z"/>
<path d="M1437 3634 l-47 -24 35 -70 35 -70 50 25 c28 14 50 30 50 35 0 14
-16 12 -52 -6 -25 -13 -32 -14 -39 -2 -13 20 -12 23 27 42 26 12 34 20 27 27
-7 7 -20 6 -41 -5 -38 -20 -38 -20 -46 -1 -4 11 5 21 29 32 19 9 35 23 35 30
0 18 -7 16 -63 -13z"/>
<path d="M2935 3561 c-28 -56 -32 -70 -20 -75 11 -4 25 14 50 63 32 64 35 81
13 81 -4 0 -23 -31 -43 -69z"/>
<path d="M3007 3524 c-24 -112 -13 -119 76 -48 31 25 57 50 57 55 0 18 -30 8
-65 -22 -20 -18 -38 -29 -41 -26 -3 3 0 24 6 47 11 42 8 70 -8 70 -5 0 -16
-34 -25 -76z"/>
<path d="M1308 3562 c-27 -15 -48 -33 -48 -39 0 -16 22 -17 37 -2 8 8 20 -5
44 -45 19 -31 37 -56 41 -56 21 0 16 26 -13 72 -30 46 -31 52 -16 63 17 12 23
35 10 35 -5 0 -29 -13 -55 -28z"/>
<path d="M1990 3556 c-290 -45 -555 -183 -778 -405 -115 -115 -246 -322 -310
-488 -78 -201 -101 -510 -53 -713 69 -296 182 -504 380 -701 188 -186 419
-310 691 -371 139 -31 417 -33 550 -5 432 92 783 355 965 722 79 161 122 297
142 457 15 120 16 151 4 269 -16 165 -35 239 -100 399 -60 146 -109 231 -189
332 -198 248 -487 423 -812 494 -101 22 -378 27 -490 10z m490 -40 c281 -59
517 -190 714 -396 176 -186 282 -388 343 -655 26 -114 25 -385 -1 -510 -55
-263 -175 -484 -366 -676 -193 -193 -414 -314 -686 -375 -107 -24 -368 -29
-492 -10 -280 43 -547 180 -752 385 -380 381 -492 930 -292 1426 70 173 144
286 284 431 189 196 426 324 708 383 145 30 387 29 540 -3z"/>
<path d="M2069 3473 c-8 -9 -13 -24 -11 -33 2 -14 -8 -19 -50 -24 -78 -10
-208 -47 -208 -58 0 -7 16 -8 43 -5 31 5 36 4 19 -3 -12 -5 -25 -17 -28 -25
-9 -22 25 -57 48 -49 10 3 18 1 18 -5 0 -6 7 -11 16 -11 13 0 15 7 9 40 -4 26
-3 40 4 40 6 0 11 -12 11 -26 0 -31 24 -28 28 5 5 29 -17 54 -41 47 -14 -3
-17 -2 -9 6 6 6 28 11 49 12 33 1 38 -2 35 -20 -1 -12 5 -27 14 -34 14 -12 17
-12 25 3 15 25 27 21 31 -10 2 -16 8 -26 13 -23 13 7 14 121 1 138 -7 10 -5
17 7 24 10 5 15 13 12 19 -9 13 -21 11 -36 -8z m-9 -88 c0 -8 -7 -15 -15 -15
-16 0 -20 12 -8 23 11 12 23 8 23 -8z m-170 -70 c0 -8 -7 -15 -15 -15 -8 0
-15 7 -15 15 0 8 7 15 15 15 8 0 15 -7 15 -15z"/>
<path d="M2130 3435 c0 -9 9 -15 25 -15 16 0 25 -6 25 -16 0 -14 -3 -14 -15
-4 -35 29 -30 -18 6 -64 24 -30 45 -26 28 5 -12 24 -6 34 16 26 16 -7 21 -57
5 -57 -5 0 -10 -4 -10 -10 0 -5 7 -10 15 -10 8 0 15 -4 15 -10 0 -16 -36 -12
-50 5 -10 12 -16 13 -24 5 -15 -15 19 -40 54 -40 39 0 50 17 43 65 -3 24 0 59
7 79 7 21 10 39 8 40 -1 2 -36 6 -75 10 -61 5 -73 4 -73 -9z m108 -33 c2 -7
-3 -12 -12 -12 -9 0 -16 7 -16 16 0 17 22 14 28 -4z"/>
<path d="M2574 3399 c6 -20 5 -21 -4 -6 -15 23 -33 22 -25 -2 6 -19 5 -19 -56
0 -33 10 -67 19 -75 19 -26 0 -14 -18 16 -25 37 -8 39 -21 4 -20 -15 0 -31 -8
-38 -18 -9 -15 -6 -22 17 -41 15 -12 27 -28 27 -35 0 -21 25 -6 28 17 4 25 28
47 36 34 3 -6 -1 -15 -9 -22 -19 -16 -19 -30 -1 -30 20 0 46 39 39 57 -3 8
-15 19 -27 24 -15 6 -9 7 19 3 22 -4 42 -8 45 -11 2 -2 -2 -18 -9 -36 -20 -50
-25 -77 -12 -77 7 0 20 20 31 45 21 49 50 61 50 21 0 -13 3 -26 8 -29 4 -2 1
-2 -6 0 -26 6 -31 -8 -15 -43 15 -31 42 -43 36 -16 -4 15 56 72 63 61 3 -5 -4
-24 -15 -43 -12 -18 -21 -41 -21 -50 0 -30 20 -16 42 29 12 25 27 45 32 45 19
-1 111 -73 99 -77 -7 -3 -25 5 -41 17 -24 18 -33 20 -51 11 -30 -16 -26 -81 5
-81 10 0 12 8 8 30 -5 24 -3 30 10 30 13 0 16 -5 11 -21 -6 -19 -4 -21 14 -16
25 6 26 -1 6 -30 -11 -16 -12 -24 -3 -29 7 -4 18 2 27 16 9 13 24 33 33 44 16
20 18 20 34 4 18 -17 12 -38 -12 -38 -8 0 -14 -10 -14 -26 0 -20 4 -24 19 -19
32 10 37 -16 7 -42 -20 -17 -26 -31 -24 -51 3 -29 23 -33 23 -4 1 18 78 102
95 102 21 0 9 20 -34 54 -23 20 -48 36 -55 36 -6 0 -11 6 -11 13 0 14 -55 50
-195 127 -85 47 -101 59 -105 84 -3 16 -11 31 -19 34 -9 3 -11 -2 -7 -19z
m-124 -64 c0 -8 -7 -15 -15 -15 -16 0 -20 12 -8 23 11 12 23 8 23 -8z m509
-252 c-8 -9 -16 -10 -22 -4 -13 13 0 31 19 24 11 -4 12 -8 3 -20z"/>
<path d="M1673 3285 c-3 -9 -3 -18 0 -21 9 -9 27 6 27 22 0 19 -19 18 -27 -1z"/>
<path d="M1580 3258 c-30 -17 -58 -35 -62 -41 -4 -7 -18 -7 -46 1 -50 15 -52
15 -52 -3 0 -9 9 -15 25 -15 14 0 25 -3 25 -8 0 -4 -25 -27 -55 -51 -60 -48
-69 -65 -30 -55 22 5 25 3 25 -20 0 -22 4 -26 29 -26 16 0 34 6 40 14 7 8 21
12 31 9 29 -8 24 7 -16 48 -34 35 -38 59 -11 59 7 -1 24 -19 39 -40 27 -39 48
-51 48 -28 0 6 -11 26 -25 44 -25 33 -33 64 -16 64 5 0 17 3 26 6 13 5 16 2
13 -17 -2 -20 2 -25 25 -27 31 -4 32 -1 12 38 -25 48 2 44 30 -5 15 -25 30
-45 34 -45 17 0 19 14 4 36 -8 13 -21 39 -27 58 l-12 34 -54 -30z m-121 -152
c13 -24 8 -46 -10 -46 -5 0 -9 9 -9 19 0 11 -5 23 -10 26 -11 7 -4 25 9 25 4
0 13 -11 20 -24z"/>
<path d="M1695 3221 c-3 -5 -1 -12 5 -16 12 -7 30 2 30 16 0 12 -27 12 -35 0z"/>
<path d="M2178 3144 c-5 -4 -8 -52 -8 -106 0 -75 -3 -99 -12 -96 -7 3 -14 17
-16 31 -4 36 -22 34 -22 -2 0 -23 -6 -30 -25 -35 -14 -4 -30 -4 -34 -1 -5 2
-19 45 -31 95 -12 49 -26 90 -31 90 -5 0 -9 -3 -9 -6 0 -8 39 -160 46 -177 3
-8 -2 -17 -11 -21 -12 -4 -19 3 -27 24 -5 17 -14 30 -20 30 -6 0 -7 -7 -4 -15
3 -8 8 -21 12 -29 5 -14 -41 -50 -55 -42 -4 3 -29 42 -56 87 -27 46 -50 78
-53 71 -2 -6 17 -46 42 -90 25 -43 46 -82 46 -85 0 -16 -30 -5 -44 15 -21 29
-33 15 -13 -15 15 -23 14 -26 -9 -48 l-25 -23 -69 69 c-38 38 -73 66 -77 62
-4 -4 24 -39 62 -77 48 -48 66 -73 59 -80 -7 -7 -19 -4 -37 10 -31 25 -37 12
-7 -15 24 -22 24 -24 0 -53 l-19 -23 -80 47 c-44 25 -85 44 -92 42 -7 -2 24
-25 69 -51 44 -26 84 -52 87 -58 11 -18 -2 -22 -34 -11 -36 13 -42 -2 -8 -19
12 -6 23 -13 25 -14 8 -7 -23 -65 -33 -62 -42 17 -177 48 -182 43 -10 -10 -3
-13 92 -38 63 -16 90 -28 90 -38 0 -11 -9 -14 -35 -12 -37 4 -33 -13 5 -20 15
-2 20 -11 20 -38 l0 -35 -100 -5 -100 -6 100 -4 c80 -4 100 -8 100 -20 0 -9
-11 -16 -27 -18 -38 -4 -36 -22 2 -22 23 0 31 -5 36 -26 4 -14 3 -29 -2 -34
-5 -4 -47 -18 -94 -30 -88 -22 -97 -26 -88 -36 4 -3 48 6 99 20 51 14 96 23
101 20 16 -10 7 -24 -24 -39 l-33 -15 36 5 c31 5 37 2 47 -21 7 -14 10 -29 7
-34 -3 -4 -42 -30 -87 -56 -45 -26 -76 -50 -70 -52 6 -2 47 18 92 44 62 35 84
44 93 35 12 -12 10 -15 -33 -41 -8 -4 -12 -12 -8 -16 4 -4 19 1 34 10 24 17
27 17 45 0 10 -9 19 -22 19 -28 0 -6 -30 -41 -67 -78 -37 -37 -64 -71 -60 -75
4 -4 38 23 75 60 37 37 73 67 80 67 19 0 14 -25 -8 -45 -11 -10 -18 -21 -15
-23 3 -3 16 5 29 17 23 22 25 22 50 6 14 -10 26 -20 26 -24 0 -4 -13 -28 -30
-54 -33 -52 -35 -57 -20 -57 5 0 21 21 36 48 15 26 29 49 30 51 2 2 10 1 19
-3 14 -5 14 -8 0 -36 -9 -18 -11 -30 -5 -30 6 0 16 12 22 26 10 20 17 24 37
19 14 -3 31 -12 37 -20 6 -8 20 -12 31 -9 14 4 26 -2 38 -18 17 -23 17 -23 10
12 -7 36 -25 65 -25 41 0 -18 -51 -6 -129 32 -78 37 -186 140 -223 213 -122
236 -46 527 172 666 97 62 140 73 281 73 l126 0 84 -42 c174 -87 274 -234 286
-418 10 -160 -36 -285 -147 -396 -80 -80 -178 -132 -252 -133 -60 -1 -68 -26
-8 -26 22 0 40 -4 40 -10 0 -5 5 -10 10 -10 6 0 10 7 8 16 -5 28 21 27 32 0 5
-14 14 -26 20 -26 6 0 6 9 0 26 -6 14 -10 27 -10 28 0 6 60 29 64 25 2 -2 22
-37 45 -76 23 -40 46 -73 52 -73 11 0 3 18 -48 102 -32 54 -36 78 -12 78 5 0
15 -11 21 -25 6 -14 15 -25 20 -25 13 0 9 22 -9 42 -15 17 -15 19 2 38 10 11
23 20 30 20 6 0 41 -30 78 -67 37 -37 70 -63 74 -60 4 4 -23 38 -60 75 -64 65
-81 92 -55 92 6 0 20 -7 30 -17 10 -9 21 -13 25 -9 4 4 -3 16 -16 26 -24 17
-24 19 -8 44 10 14 21 26 25 26 4 0 42 -20 86 -45 43 -25 83 -45 88 -45 20 0
-4 19 -82 64 -44 25 -80 50 -80 54 0 18 14 20 41 6 36 -18 38 -2 4 20 -20 13
-24 22 -19 39 3 12 10 26 14 30 4 4 49 -4 100 -18 81 -23 115 -26 99 -10 -3 2
-45 15 -95 28 -64 17 -90 29 -92 41 -3 15 2 16 32 10 44 -8 47 3 5 18 -26 9
-30 15 -27 42 l3 31 98 3 c129 4 127 22 -3 22 -82 0 -100 3 -100 15 0 10 10
15 30 15 40 0 38 18 -2 22 -29 3 -33 7 -36 34 -3 31 -2 32 65 47 81 18 132 38
116 44 -6 2 -52 -7 -101 -21 -50 -13 -93 -22 -96 -18 -13 12 -5 24 24 33 17 6
30 15 30 21 0 8 -18 6 -56 -9 -6 -2 -17 10 -24 27 -15 37 -22 30 88 90 40 23
70 45 67 50 -3 5 -44 -14 -92 -41 -61 -36 -89 -47 -97 -39 -8 8 -2 18 19 35
31 25 20 35 -15 13 -15 -10 -23 -9 -39 6 -12 11 -21 22 -21 25 0 3 29 36 65
73 36 36 65 72 65 79 0 8 -34 -20 -75 -61 -58 -58 -77 -72 -87 -62 -9 9 -6 17
12 37 19 20 20 25 7 25 -9 0 -21 -9 -27 -20 -13 -25 -19 -25 -49 0 l-23 20 46
82 c63 111 53 123 -13 15 -29 -48 -57 -87 -62 -87 -12 0 -12 27 1 51 15 28 -5
24 -24 -6 -14 -21 -19 -23 -46 -13 -21 7 -29 15 -26 27 33 117 47 174 42 179
-10 9 -13 1 -38 -93 -16 -60 -29 -90 -39 -90 -10 0 -13 10 -11 35 4 37 -13 33
-20 -5 -2 -15 -11 -20 -38 -20 l-35 0 -5 103 c-3 57 -8 100 -12 96z"/>
<path d="M1281 2840 c-13 -11 -32 -20 -43 -20 -28 0 -72 -25 -100 -58 -38 -45
-116 -240 -128 -318 -29 -205 3 -427 97 -656 29 -74 48 -139 58 -205 8 -54 15
-102 15 -107 0 -26 57 48 86 112 18 39 38 72 44 72 6 0 38 -9 71 -20 34 -12
64 -18 68 -15 3 4 -16 25 -42 47 -103 88 -184 236 -194 358 -10 117 24 216
124 365 34 50 69 115 79 145 32 99 18 256 -27 301 -25 25 -77 24 -108 -1z m81
-1 c43 -23 68 -148 48 -245 -23 -112 -33 -118 -119 -85 -61 23 -112 63 -153
120 l-31 44 23 44 c22 42 103 104 116 90 3 -3 -3 -31 -15 -62 -22 -58 -28
-135 -11 -135 6 0 10 17 10 38 0 57 38 159 67 182 30 23 37 24 65 9z m-177
-287 c40 -35 134 -82 165 -82 17 0 11 -11 -40 -87 -66 -94 -97 -167 -111 -254
-21 -139 29 -288 138 -408 47 -52 53 -63 33 -57 -14 5 -38 9 -54 10 -32 1 -31
3 -81 -107 -15 -31 -30 -57 -34 -57 -4 0 -12 35 -18 79 -11 73 -24 116 -69
233 -17 44 -17 48 -1 66 9 10 17 27 17 37 0 10 7 27 17 37 14 16 15 18 0 18
-19 0 -28 -13 -36 -53 -10 -47 -27 -43 -40 10 -7 26 -14 56 -17 66 -4 14 1 17
27 17 37 0 29 16 -10 22 -17 2 -27 12 -32 30 -9 33 -4 38 40 39 l36 2 -40 6
c-32 5 -41 11 -43 29 -3 20 0 22 48 22 32 0 49 4 45 10 -3 6 -29 10 -56 10
-47 0 -50 2 -47 23 3 19 10 22 61 25 76 4 74 22 -3 22 l-60 0 0 66 c0 73 -4
72 76 12 55 -41 99 -54 49 -14 -29 23 -29 23 -7 30 12 4 22 12 22 17 0 9 -17
7 -55 -8 -15 -5 -92 63 -83 73 5 4 23 -1 43 -11 49 -27 53 -13 6 18 -30 20
-38 31 -34 47 3 11 7 20 10 20 3 0 32 -21 65 -46 62 -47 88 -61 88 -49 0 4
-10 15 -22 25 l-22 17 22 7 c12 4 22 12 22 17 0 12 -4 11 -34 -2 -21 -10 -31
-7 -70 17 -25 16 -45 34 -46 39 0 6 12 34 26 64 l25 55 18 -30 c10 -16 39 -49
66 -72z"/>
<path d="M1329 2664 c-17 -21 0 -49 31 -49 31 0 48 28 31 49 -8 9 -21 16 -31
16 -10 0 -23 -7 -31 -16z"/>
<path d="M2953 2838 c-12 -13 -26 -47 -32 -76 -30 -142 -1 -246 114 -411 74
-107 90 -157 90 -291 0 -113 -1 -116 -38 -193 -28 -57 -60 -100 -116 -158 -42
-44 -74 -82 -70 -85 4 -2 35 5 69 17 33 11 67 18 74 16 8 -3 21 -28 31 -56 17
-52 68 -131 85 -131 6 0 10 15 10 34 0 67 29 184 73 297 72 182 99 315 101
494 1 120 -15 213 -49 290 -13 28 -33 73 -44 100 -30 69 -86 124 -133 131 -20
4 -45 15 -54 25 -25 27 -85 25 -111 -3z m99 -15 c30 -31 68 -136 68 -185 0
-24 3 -29 11 -21 11 11 8 31 -28 170 -5 21 -4 22 26 12 35 -12 88 -68 97 -103
12 -51 -65 -138 -162 -183 -76 -35 -95 -29 -116 32 -19 56 -23 172 -8 224 11
40 47 81 70 81 9 0 28 -12 42 -27z m222 -235 l25 -55 -46 -32 c-40 -29 -49
-31 -71 -22 -31 15 -42 5 -16 -13 18 -14 18 -15 -6 -35 -52 -42 4 -19 67 29
36 27 69 47 74 44 20 -12 7 -40 -29 -63 -20 -13 -31 -26 -25 -28 7 -3 23 3 35
11 51 36 53 0 2 -39 -31 -24 -39 -26 -61 -16 -29 13 -47 4 -20 -10 23 -13 22
-26 -3 -34 -19 -6 -28 -25 -12 -25 5 0 35 20 68 44 32 24 62 42 66 40 5 -3 8
-32 8 -65 l0 -59 -59 0 c-33 0 -63 -4 -66 -10 -4 -6 16 -10 53 -10 66 0 72 -3
65 -31 -4 -15 -14 -19 -54 -19 -27 0 -49 -4 -49 -10 0 -5 23 -10 51 -10 47 0
50 -2 47 -22 -2 -19 -11 -24 -48 -29 l-45 -6 43 -1 c34 -2 42 -6 42 -21 0 -37
-12 -51 -41 -51 -16 0 -29 -4 -29 -10 0 -5 11 -10 25 -10 28 0 30 -7 14 -65
-18 -69 -18 -69 -34 -55 -8 7 -15 22 -15 34 0 26 -18 46 -40 46 -13 -1 -12 -3
3 -14 9 -7 17 -22 17 -33 0 -11 9 -32 20 -45 l19 -25 -34 -84 c-19 -46 -41
-124 -50 -173 -8 -49 -17 -91 -20 -94 -7 -7 -44 60 -61 111 -17 52 -41 65 -88
48 -41 -16 -41 -14 -1 30 53 59 111 152 132 212 13 38 18 80 17 157 0 127 -17
176 -104 306 l-59 89 37 11 c83 24 155 74 197 134 16 22 29 39 31 37 2 -2 14
-28 28 -59z"/>
<path d="M2954 2666 c-12 -31 0 -51 31 -51 27 0 30 3 30 30 0 25 -4 30 -28 33
-17 2 -29 -2 -33 -12z"/>
<path d="M2188 2523 c-8 -32 -18 -65 -22 -73 -5 -12 3 -15 44 -16 27 -1 57 -7
66 -15 15 -12 16 -11 9 10 -15 49 -53 127 -68 139 -12 10 -16 3 -29 -45z"/>
<path d="M1946 1830 c-109 -23 -185 -59 -209 -99 -17 -30 -17 -30 7 -46 78
-52 311 -4 362 73 15 23 15 28 0 58 -19 40 -30 41 -160 14z"/>
<path d="M2210 1824 c-14 -37 -13 -39 24 -72 76 -67 214 -106 310 -88 29 6 36
11 36 30 0 49 -108 114 -237 141 -100 22 -122 20 -133 -11z"/>
<path d="M2127 1725 c-54 -63 -155 -100 -272 -100 -71 0 -97 4 -119 18 l-28
19 7 -24 c25 -79 115 -177 204 -222 64 -33 187 -50 296 -42 131 11 231 68 327
189 21 27 38 52 38 55 0 4 -46 7 -103 7 -93 0 -107 3 -167 31 -36 17 -84 49
-106 70 l-42 39 -35 -40z"/>
<path d="M3125 3449 c-26 -34 -43 -64 -38 -68 49 -41 86 -62 94 -54 6 6 -3 20
-26 38 -33 24 -35 29 -22 42 13 13 18 13 46 -8 40 -29 55 -15 18 17 -18 15
-27 31 -23 40 5 13 10 13 35 -5 55 -39 72 -19 19 21 -18 13 -38 28 -45 31 -7
5 -30 -17 -58 -54z"/>
<path d="M1152 3454 c-12 -13 -11 -22 3 -56 9 -22 14 -42 12 -44 -2 -2 -20 9
-40 23 -35 25 -39 25 -54 10 -15 -14 -12 -20 33 -76 26 -33 52 -57 56 -55 13
8 9 21 -17 52 -36 43 -31 46 17 12 55 -40 70 -27 40 35 -24 50 -28 69 -9 44
52 -66 58 -72 68 -62 7 7 -6 30 -41 72 -29 33 -52 61 -53 61 -1 -1 -8 -8 -15
-16z"/>
<path d="M3264 3377 c-16 -18 -37 -43 -47 -54 -27 -31 -11 -50 18 -23 32 30
49 17 41 -30 -4 -26 -2 -41 8 -49 16 -13 26 4 26 45 0 17 4 22 15 17 18 -6 55
23 55 45 0 14 -67 82 -80 82 -4 0 -20 -15 -36 -33z m64 -19 c16 -16 15 -48 -1
-48 -8 0 -21 8 -30 18 -13 14 -14 21 -5 30 15 15 21 15 36 0z"/>
<path d="M973 3289 c-9 -9 -4 -28 23 -80 38 -76 39 -79 24 -79 -6 0 -21 -12
-34 -27 l-23 -27 -50 37 c-36 26 -53 33 -61 25 -10 -10 3 -22 104 -99 7 -6 23
9 44 39 19 26 41 52 48 58 11 8 12 15 4 31 -9 17 -8 24 9 39 12 11 33 19 47
19 47 0 32 20 -30 42 -35 12 -70 24 -78 28 -9 3 -21 0 -27 -6z m77 -48 c0 -3
-5 -13 -10 -21 -9 -13 -11 -13 -20 0 -16 24 -12 39 10 33 11 -3 20 -8 20 -12z"/>
<path d="M3392 3268 c-16 -16 -15 -40 3 -74 16 -31 7 -51 -19 -41 -10 4 -16
18 -16 36 0 37 -15 48 -30 21 -12 -22 -8 -33 23 -67 25 -28 48 -29 72 -3 16
18 17 22 1 61 -9 23 -15 44 -12 46 11 11 35 -7 38 -28 4 -31 28 -37 28 -7 0
48 -59 85 -88 56z"/>
<path d="M3468 3128 c-53 -37 -74 -68 -48 -68 15 0 120 79 120 90 0 21 -19 16
-72 -22z"/>
<path d="M3550 3114 c0 -3 4 -13 10 -23 8 -15 1 -24 -43 -51 -29 -19 -54 -35
-56 -37 -3 -2 1 -9 7 -15 8 -8 25 -2 65 24 52 35 54 35 66 16 9 -14 16 -17 23
-10 7 7 0 25 -21 56 -28 40 -51 58 -51 40z"/>
<path d="M781 3036 c-12 -14 9 -50 86 -146 10 -12 20 25 11 40 -15 23 16 70
41 63 17 -4 39 13 29 23 -3 2 -31 9 -64 15 -32 5 -66 12 -75 15 -9 2 -22 -2
-28 -10z m82 -32 c8 -8 -3 -34 -14 -34 -4 0 -13 9 -19 20 -9 17 -8 20 8 20 10
0 21 -3 25 -6z"/>
<path d="M3617 2964 c-16 -31 -36 -55 -56 -64 -21 -11 -28 -19 -22 -28 7 -11
14 -11 41 3 25 13 46 16 83 11 38 -5 48 -4 45 6 -3 7 -21 14 -41 16 -41 4 -44
11 -21 47 11 17 13 29 6 41 -8 15 -14 10 -35 -32z"/>
<path d="M717 2928 c-2 -7 2 -31 10 -52 15 -43 11 -55 -12 -36 -15 12 -45 8
-45 -8 0 -8 123 -72 140 -72 18 0 10 23 -17 49 l-28 25 47 9 c26 5 49 16 53
24 5 14 -2 15 -49 9 l-55 -6 -12 35 c-13 36 -24 44 -32 23z"/>
<path d="M3560 2805 c-20 -12 -22 -15 -8 -20 20 -8 61 12 53 26 -8 11 -14 10
-45 -6z"/>
<path d="M3702 2725 c-23 -7 -49 -19 -57 -25 -21 -18 -18 -67 5 -90 23 -23 26
-23 66 -11 16 5 41 12 57 15 15 4 27 13 27 21 0 18 -12 19 -70 1 -55 -16 -70
-12 -70 19 0 20 9 27 55 41 30 10 55 24 55 31 0 16 -12 16 -68 -2z"/>
<path d="M750 2664 c-6 -14 -10 -30 -10 -35 0 -13 -21 -11 -70 6 -52 18 -57
19 -63 1 -4 -11 13 -20 63 -35 37 -12 71 -21 74 -21 8 0 21 34 31 78 8 39 -11
44 -25 6z"/>
<path d="M3794 2566 c5 -22 2 -25 -45 -35 -27 -6 -57 -11 -64 -11 -8 0 -15 -7
-15 -16 0 -14 8 -16 50 -10 28 4 57 9 66 13 10 4 17 -2 21 -16 3 -11 12 -21
20 -21 9 0 13 6 10 14 -3 7 -9 34 -12 60 -5 31 -12 46 -22 46 -11 0 -13 -7 -9
-24z"/>
<path d="M580 2557 c0 -10 19 -18 60 -26 66 -13 76 -21 60 -51 -7 -14 -18 -19
-33 -16 -78 16 -97 17 -97 2 0 -16 13 -21 78 -31 54 -9 82 12 82 61 0 42 -25
60 -97 69 -43 6 -53 4 -53 -8z"/>
<path d="M3820 2426 c0 -22 -5 -25 -62 -33 -46 -6 -63 -12 -63 -23 0 -11 9
-14 40 -11 83 9 90 7 93 -17 2 -13 9 -21 15 -19 19 7 6 127 -13 127 -6 0 -10
-11 -10 -24z"/>
<path d="M566 2378 c-9 -12 -16 -39 -16 -59 0 -43 12 -49 103 -49 l57 0 0 45
c0 60 -24 85 -84 85 -35 0 -48 -5 -60 -22z m98 -14 c24 -9 21 -64 -3 -64 -51
0 -81 13 -81 35 0 12 3 25 7 28 8 9 56 9 77 1z"/>
<path d="M3700 2301 c0 -10 9 -21 20 -24 14 -4 20 -14 20 -34 0 -17 -8 -33
-20 -41 -23 -14 -26 -32 -6 -32 7 0 43 14 80 30 87 40 84 54 -16 91 -72 26
-78 27 -78 10z m99 -50 c11 -7 10 -11 -7 -20 -28 -15 -32 -14 -32 9 0 21 16
26 39 11z"/>
<path d="M634 2229 c-3 -6 -17 -8 -31 -4 -37 9 -53 -11 -53 -66 l0 -49 81 0
82 0 -6 51 c-4 28 -12 57 -18 65 -14 17 -45 18 -55 3z m40 -35 c12 -32 6 -54
-14 -54 -15 0 -20 7 -20 28 0 41 22 58 34 26z m-66 -27 c3 -22 -1 -27 -17 -27
-15 0 -21 6 -21 23 0 46 33 49 38 4z"/>
<path d="M3700 2125 c0 -10 10 -15 30 -15 41 0 39 -23 -5 -49 -19 -11 -35 -27
-35 -36 0 -19 4 -19 39 0 26 13 30 13 41 0 15 -18 54 -20 68 -2 5 6 12 33 16
58 7 46 7 46 -25 53 -61 12 -129 7 -129 -9z m117 -23 c15 -10 4 -62 -13 -62
-9 0 -14 12 -14 35 0 35 5 41 27 27z"/>
<path d="M632 2049 c-93 -51 -92 -66 3 -91 39 -9 75 -18 82 -18 19 0 4 27 -18
33 -24 6 -27 62 -3 75 9 5 14 16 13 25 -3 14 -16 10 -77 -24z m28 -48 c0 -14
-6 -17 -25 -13 -27 5 -33 17 -12 25 25 11 37 7 37 -12z"/>
<path d="M3672 1914 c2 -11 13 -20 27 -22 20 -3 22 -8 17 -34 -7 -36 6 -64 34
-71 30 -8 59 22 66 69 l6 40 -54 12 c-29 7 -64 15 -77 19 -19 5 -22 2 -19 -13z
m107 -43 c16 -11 6 -51 -14 -51 -19 0 -27 17 -20 40 7 22 13 24 34 11z"/>
<path d="M720 1855 c0 -8 7 -15 15 -15 8 0 15 7 15 15 0 8 -7 15 -15 15 -8 0
-15 -7 -15 -15z"/>
<path d="M675 1781 c-29 -10 -51 -25 -53 -34 -4 -22 2 -21 67 4 58 22 86 14
61 -16 -9 -11 -10 -19 -3 -26 14 -14 44 27 36 50 -7 19 -33 41 -47 40 -6 0
-33 -8 -61 -18z"/>
<path d="M3630 1766 c0 -8 11 -17 25 -20 38 -10 30 -34 -14 -46 -21 -5 -42
-17 -45 -25 -6 -16 15 -19 49 -6 15 6 22 3 30 -13 16 -31 66 -29 82 4 32 68
29 74 -39 98 -73 26 -88 27 -88 8z m108 -81 c-21 -47 -51 -20 -32 29 5 12 10
13 25 6 16 -9 17 -14 7 -35z"/>
<path d="M784 1686 c-8 -22 3 -33 18 -18 9 9 9 15 0 24 -9 9 -13 7 -18 -6z"/>
<path d="M3580 1631 c0 -11 4 -23 10 -26 16 -10 -18 -65 -40 -65 -17 0 -37
-17 -29 -24 2 -2 41 -7 85 -10 108 -9 114 4 43 83 -59 64 -69 70 -69 42z m60
-76 c16 -20 8 -29 -19 -20 -12 4 -18 12 -14 21 7 18 17 18 33 -1z"/>
<path d="M695 1614 c-16 -17 -14 -36 11 -86 11 -20 19 -25 32 -20 86 36 122
56 119 66 -4 12 -22 12 -47 2 -10 -4 -21 4 -32 24 -19 34 -56 40 -83 14z m66
-35 c9 -17 8 -23 -2 -30 -21 -13 -34 -5 -37 24 -4 33 22 37 39 6z"/>
<path d="M860 1514 c0 -17 22 -14 28 4 2 7 -3 12 -12 12 -9 0 -16 -7 -16 -16z"/>
<path d="M3490 1473 c-44 -56 -32 -107 31 -133 39 -16 70 -2 99 45 l19 30 -64
42 -64 42 -21 -26z m94 -59 c19 -13 19 -14 1 -34 -24 -26 -38 -25 -72 4 -25
21 -26 26 -15 50 12 26 13 27 40 11 15 -9 36 -23 46 -31z"/>
<path d="M852 1429 c-41 -59 -50 -83 -34 -93 4 -2 42 3 85 12 76 16 96 34 45
40 -31 4 -55 47 -37 68 11 13 5 34 -10 34 -4 0 -26 -27 -49 -61z m41 -33 c3
-8 -1 -17 -9 -20 -28 -11 -34 -6 -22 14 15 24 24 25 31 6z"/>
<path d="M3386 1328 c-54 -62 -47 -82 9 -28 28 27 34 29 44 16 10 -12 8 -21
-10 -45 -29 -39 -15 -55 16 -18 13 15 28 27 34 27 21 0 20 -20 -4 -48 -28 -34
-31 -42 -12 -42 8 0 29 19 47 41 33 41 33 42 13 58 -12 9 -39 31 -61 49 l-40
32 -36 -42z"/>
<path d="M1015 1299 c-10 -15 1 -23 20 -15 9 3 13 10 10 16 -8 13 -22 13 -30
-1z"/>
<path d="M1057 1263 c-4 -3 -7 -20 -7 -36 0 -25 -3 -28 -21 -24 -21 6 -59 -23
-59 -43 0 -6 17 -29 38 -51 l37 -40 54 55 c32 32 50 59 46 66 -5 8 -14 5 -31
-11 -33 -31 -49 -15 -36 34 8 27 7 39 -2 46 -7 6 -16 8 -19 4z m3 -113 c7 -13
6 -21 -4 -29 -17 -14 -51 21 -43 43 7 19 34 11 47 -14z"/>
<path d="M3281 1214 c-24 -30 -25 -38 -11 -65 13 -23 44 -24 84 -4 17 9 33 12
38 7 10 -10 -9 -28 -36 -33 -32 -6 -31 -29 2 -29 37 0 64 30 60 67 -4 35 -33
41 -78 18 -23 -12 -35 -14 -43 -6 -15 15 8 39 41 43 37 4 34 22 -4 26 -25 2
-37 -3 -53 -24z"/>
<path d="M3206 1142 c-2 -4 4 -19 14 -32 18 -25 18 -25 -3 -48 l-21 -22 -22
27 c-17 22 -25 25 -35 16 -9 -9 -1 -24 36 -67 26 -31 51 -56 55 -56 17 0 18
14 3 37 -15 23 -15 26 5 45 l21 21 20 -24 c15 -19 22 -21 32 -12 9 9 1 24 -36
67 -47 55 -59 64 -69 48z"/>
<path d="M1135 1105 c-24 -23 -30 -41 -25 -75 2 -19 50 -70 65 -70 7 0 33 26
58 59 l46 59 -37 26 c-47 32 -76 33 -107 1z m79 -11 c23 -9 20 -24 -13 -64
-25 -29 -31 -32 -45 -21 -21 17 -20 50 1 73 17 19 31 22 57 12z"/>
<path d="M1502 858 c-28 -28 -1 -75 37 -63 25 8 34 31 21 56 -12 21 -40 25
-58 7z"/>
<path d="M2844 839 c-24 -27 -8 -54 32 -54 23 0 30 5 32 24 3 15 -3 30 -14 38
-24 17 -28 17 -50 -8z"/>
<path d="M1727 822 c-10 -15 -47 -117 -47 -128 0 -11 68 -44 90 -44 23 0 7 22
-25 35 l-34 15 19 46 c11 25 20 52 20 59 0 16 -17 29 -23 17z"/>
<path d="M2693 773 c6 -62 2 -61 -35 6 -25 45 -46 31 -50 -32 l-3 -52 -23 43
c-12 23 -29 42 -37 42 -22 0 -19 -12 21 -79 25 -42 42 -61 56 -61 19 0 20 5
16 55 -3 30 -2 55 1 55 3 0 18 -20 33 -45 32 -52 58 -53 58 0 0 69 -12 125
-28 125 -12 0 -14 -10 -9 -57z"/>
<path d="M1825 738 c-19 -66 -19 -81 3 -100 29 -26 57 -30 80 -11 23 20 55
120 41 129 -16 10 -27 -5 -39 -55 -13 -54 -28 -67 -55 -47 -16 12 -16 16 -2
66 9 30 14 57 11 62 -12 19 -24 5 -39 -44z"/>
<path d="M2420 740 c-44 -44 -10 -140 49 -140 41 0 81 35 81 71 0 32 -16 69
-34 81 -22 15 -76 8 -96 -12z m84 -22 c33 -46 10 -96 -38 -84 -35 9 -48 63
-20 90 21 22 40 20 58 -6z"/>
<path d="M1980 730 c-42 -42 -35 -109 14 -131 29 -14 75 -4 83 17 9 23 -4 29
-31 14 -34 -18 -56 -7 -56 29 0 16 3 36 6 45 8 21 51 20 63 -1 8 -14 12 -15
22 -6 10 10 9 17 -6 33 -23 26 -69 26 -95 0z"/>
<path d="M2110 660 c0 -64 3 -80 15 -80 8 0 15 9 15 19 0 25 10 51 19 51 5 0
16 -16 27 -35 10 -20 26 -35 36 -35 23 0 23 3 -9 51 l-26 40 26 27 c32 33 34
42 9 42 -9 0 -28 -13 -42 -30 -14 -16 -28 -30 -32 -30 -5 0 -8 14 -8 30 0 20
-5 30 -15 30 -12 0 -15 -16 -15 -80z"/>
<path d="M2256 732 c-3 -5 -2 -41 1 -80 4 -51 10 -72 19 -72 10 0 14 14 14 47
l0 47 31 -42 c39 -53 75 -59 65 -11 -3 17 -6 51 -6 75 0 32 -4 44 -14 44 -11
0 -16 -14 -18 -46 l-3 -47 -33 47 c-33 45 -46 54 -56 38z"/>
</g>
</svg>
