<?xml version="1.0" standalone="no"?>
<!DOCTYPE svg PUBLIC "-//W3C//DTD SVG 20010904//EN"
 "http://www.w3.org/TR/2001/REC-SVG-20010904/DTD/svg10.dtd">
<svg version="1.0" xmlns="http://www.w3.org/2000/svg"
 width="800.000000pt" height="600.000000pt" viewBox="0 0 800.000000 600.000000"
 preserveAspectRatio="xMidYMid meet">

<g transform="translate(0.000000,600.000000) scale(0.100000,-0.100000)"
fill="#000000" stroke="none">
<path d="M2985 3640 c-159 -32 -322 -140 -414 -274 -69 -99 -121 -256 -121
-362 l0 -34 74 0 74 0 11 74 c43 294 285 480 576 445 190 -23 370 -183 420
-374 8 -33 15 -76 15 -96 l0 -37 65 -7 c93 -10 98 -7 90 62 -12 103 -25 146
-71 242 -58 120 -170 237 -281 294 -130 68 -303 94 -438 67z m55 -60 c5 0 11
8 13 18 3 9 5 -1 5 -23 0 -31 -1 -35 -8 -20 -8 19 -9 18 -9 -4 -1 -34 -7 -23
-14 24 -3 22 -3 32 -1 23 3 -10 9 -18 14 -18z m51 13 c0 -15 2 -15 9 2 7 16 9
11 9 -20 0 -36 -1 -38 -13 -22 -11 14 -15 15 -19 5 -3 -7 -6 2 -6 20 -1 17 4
32 9 32 6 0 10 -8 11 -17z m67 -14 c3 -29 -12 -54 -27 -45 -12 8 -15 59 -4 70
12 12 28 0 31 -25z m35 -41 c8 -5 6 -8 -5 -8 -15 0 -18 8 -16 43 1 40 1 40 5
7 3 -19 10 -38 16 -42z m-183 51 c0 -5 -4 -7 -10 -4 -6 4 -10 -5 -10 -20 0
-20 4 -26 15 -21 8 3 15 1 15 -5 0 -6 -8 -9 -17 -7 -24 4 -32 68 -9 68 9 0 16
-5 16 -11z m235 1 c9 -15 -6 -60 -21 -60 -14 0 -20 51 -7 63 9 10 21 9 28 -3z
m-291 -15 c-4 -8 -1 -15 5 -15 6 0 8 -7 5 -15 -4 -9 0 -15 7 -15 11 0 11 -2
-1 -10 -11 -7 -17 -5 -22 8 -10 26 -9 62 2 62 5 0 7 -7 4 -15z m341 5 c3 -5
-1 -10 -9 -10 -19 0 -21 -17 -4 -22 14 -5 3 -38 -12 -38 -17 0 -22 24 -11 53
11 28 25 35 36 17z m-375 -12 c0 -7 3 -24 5 -38 5 -23 4 -23 -6 3 -6 15 -15
27 -20 27 -6 0 -7 5 -4 10 9 14 25 12 25 -2z m417 -1 c11 4 9 -4 -8 -30 -13
-19 -24 -35 -25 -34 -1 1 1 20 4 42 3 22 7 35 9 28 2 -7 11 -9 20 -6z m-481
-22 c-3 -9 0 -15 8 -15 9 0 12 -9 8 -26 l-5 -27 -14 27 c-14 26 -12 56 3 56 3
0 4 -7 0 -15z m539 -27 c-9 -41 -21 -56 -36 -41 -8 8 -5 19 12 42 29 39 32 39
24 -1z m-545 -34 c0 -21 -14 -24 -32 -7 -18 16 -24 44 -11 57 8 8 42 -33 43
-50z m618 5 c3 -11 2 -11 -7 1 -9 12 -11 9 -11 -14 0 -28 1 -28 18 -13 20 19
42 22 42 8 0 -6 -5 -13 -12 -17 -7 -4 -8 -3 -4 4 4 7 3 12 -3 12 -6 0 -15 -9
-21 -19 -13 -26 -13 -34 2 -25 7 4 8 3 4 -4 -11 -18 -26 -14 -26 7 0 14 -5 18
-20 14 -21 -6 -28 11 -8 23 7 4 8 3 4 -4 -4 -7 -2 -12 3 -12 6 0 11 14 11 31
0 31 20 37 28 8z m-697 -13 c6 3 9 -2 7 -12 -2 -11 2 -18 10 -16 6 1 12 -2 12
-8 0 -5 -6 -10 -14 -10 -19 0 -49 48 -39 63 5 8 9 7 11 -6 2 -9 8 -14 13 -11z
m-22 -41 c6 -3 11 -12 11 -18 -1 -7 -9 -2 -19 11 -29 33 -46 27 -21 -8 12 -16
18 -34 15 -40 -7 -11 -65 28 -65 44 0 5 10 0 23 -12 32 -30 46 -28 17 3 -23
24 -23 25 -5 45 19 21 19 21 26 2 4 -11 12 -23 18 -27z m765 -7 l-19 -22 27
17 c16 10 29 13 33 7 3 -6 -1 -10 -10 -10 -9 0 -15 -6 -13 -12 3 -7 15 -13 29
-13 31 0 31 -23 -1 -44 -23 -15 -24 -15 -17 2 4 11 3 16 -3 12 -17 -10 -50 14
-43 32 5 11 3 14 -6 8 -8 -4 -6 4 4 19 10 14 22 26 28 26 5 0 2 -10 -9 -22z
m-814 -75 c0 -4 -10 3 -23 15 -31 29 -43 15 -15 -16 l23 -25 -27 18 c-32 20
-32 19 -17 46 10 20 11 20 35 -6 13 -14 24 -29 24 -32z m-59 -19 l24 -27 -25
14 c-14 7 -28 12 -32 11 -10 -3 -10 12 -1 21 9 9 6 10 34 -19z m979 17 c0 -6
-5 -13 -12 -17 -7 -4 -8 -3 -4 4 10 16 -5 15 -27 -2 -14 -11 -15 -15 -5 -19 8
-4 7 -6 -4 -6 -22 -1 -23 7 -1 31 17 19 53 25 53 9z m23 -35 c4 -10 1 -13 -9
-9 -7 3 -14 0 -14 -6 0 -6 -7 -11 -15 -11 -8 0 -15 -5 -15 -12 0 -9 -3 -8 -12
1 -9 10 -10 15 -2 18 6 2 20 10 30 18 24 18 31 18 37 1z m-1048 -6 c-3 -6 5
-10 19 -10 14 0 28 -4 31 -10 9 -14 -4 -32 -17 -24 -6 4 -5 10 3 15 10 6 4 9
-18 9 -23 0 -33 5 -33 15 0 8 5 15 11 15 5 0 7 -4 4 -10z m16 -50 c14 -11 18
-19 11 -20 -7 0 -10 -4 -7 -10 3 -6 -1 -7 -10 -3 -14 5 -14 8 -3 15 9 7 7 8
-7 4 -11 -3 -27 -1 -35 4 -12 8 -10 10 10 10 20 0 22 2 10 10 -8 5 -10 10 -4
10 7 0 22 -9 35 -20z m1069 -24 c0 -20 -19 -31 -32 -18 -6 6 -18 8 -27 6 -9
-3 -5 2 9 10 32 19 50 20 50 2z m-1100 -11 c17 -9 30 -18 30 -20 0 -6 -52 16
-64 27 -16 13 3 9 34 -7z m1105 -24 c-6 -5 -21 -11 -35 -15 -21 -5 -20 -3 5 9
35 17 42 18 30 6z m-1086 -27 c2 -2 -2 -4 -11 -4 -11 0 -13 -8 -10 -30 5 -32
-3 -35 -48 -19 -22 8 -21 8 8 4 39 -6 44 15 7 35 -37 20 -30 32 13 24 20 -4
39 -8 41 -10z m1101 11 c0 -3 -11 -10 -25 -15 -37 -14 -30 -30 12 -30 32 0 35
-2 23 -14 -20 -18 -65 -32 -56 -17 4 6 0 18 -8 27 -23 22 -20 30 17 42 17 5
33 10 35 11 1 1 2 -1 2 -4z m-1150 -85 c21 -7 22 -8 5 -9 -17 -1 -17 -3 -5
-11 11 -7 8 -10 -16 -10 -36 0 -45 6 -37 26 6 15 15 16 53 4z m1166 -11 c-15
-9 -16 -13 -5 -20 10 -6 3 -9 -20 -9 -33 0 -34 1 -15 15 18 13 18 14 -6 9 -22
-4 -23 -3 -5 5 11 5 31 10 45 10 23 0 23 -1 6 -10z m-1178 -36 c-10 -2 -26 -2
-35 0 -10 3 -2 5 17 5 19 0 27 -2 18 -5z m1185 -10 c-7 -2 -21 -2 -30 0 -10 3
-4 5 12 5 17 0 24 -2 18 -5z m-1197 -18 c4 -8 10 -15 16 -15 5 0 6 5 3 10 -3
6 -1 10 4 10 6 0 11 -7 11 -15 0 -10 -11 -15 -35 -15 -22 0 -35 5 -35 13 0 28
27 37 36 12z"/>
<path d="M3130 3575 c0 -14 5 -25 10 -25 6 0 10 11 10 25 0 14 -4 25 -10 25
-5 0 -10 -11 -10 -25z"/>
<path d="M3220 3563 c0 -22 2 -25 10 -13 13 20 13 40 0 40 -5 0 -10 -12 -10
-27z"/>
<path d="M3260 3540 c0 -5 5 -10 11 -10 5 0 7 5 4 10 -3 6 -8 10 -11 10 -2 0
-4 -4 -4 -10z"/>
<path d="M2810 3514 c0 -5 7 -19 15 -30 8 -10 15 -14 15 -8 0 5 -7 19 -15 30
-8 10 -15 14 -15 8z"/>
<path d="M3512 3391 c2 -7 7 -12 11 -12 12 1 9 15 -3 20 -7 2 -11 -2 -8 -8z"/>
<path d="M3060 3430 c0 -24 -62 -39 -85 -20 -11 9 -22 9 -50 0 -30 -10 -36
-16 -31 -34 6 -27 -36 -60 -67 -52 -31 8 -80 -40 -67 -65 14 -25 -19 -81 -42
-73 -13 4 -22 -5 -35 -31 -17 -35 -17 -38 0 -50 23 -16 13 -71 -14 -78 -28 -8
-27 -87 1 -94 26 -7 40 -72 17 -84 -14 -8 -14 -13 0 -49 12 -31 20 -39 34 -35
23 7 66 -50 51 -68 -16 -19 33 -71 60 -64 31 8 80 -22 72 -45 -4 -14 3 -22 30
-33 45 -19 56 -19 56 1 0 11 5 14 16 10 9 -3 27 -6 40 -6 17 0 24 -6 24 -20 0
-17 7 -20 44 -20 34 0 45 4 49 18 6 25 68 38 82 18 16 -21 89 10 82 35 -6 24
59 67 75 51 7 -7 20 -2 41 18 24 22 28 31 19 42 -15 19 20 78 46 78 10 0 24
11 30 25 15 32 15 55 2 55 -5 0 -10 10 -10 23 0 38 12 67 26 67 10 0 14 13 14
44 0 34 -4 45 -19 49 -23 6 -35 67 -15 82 19 15 -12 88 -35 80 -24 -7 -67 51
-51 70 17 21 -44 83 -64 65 -21 -17 -79 17 -72 43 3 14 -4 22 -29 33 -44 18
-55 18 -55 -2 0 -13 -7 -15 -31 -10 -17 3 -35 6 -39 6 -4 0 -10 9 -13 20 -4
16 -14 20 -46 20 -34 0 -41 -3 -41 -20z m191 -80 c156 -58 249 -197 249 -369
0 -99 -25 -172 -84 -244 -54 -66 -106 -102 -185 -127 -278 -88 -555 152 -502
437 30 166 151 289 313 323 56 11 151 2 209 -20z"/>
<path d="M3015 3347 c-63 -21 -107 -47 -102 -60 2 -7 19 -57 36 -112 134 -418
164 -507 171 -494 12 22 180 594 180 613 0 46 -197 82 -285 53z m140 -79 c18
4 48 -78 33 -95 -6 -7 -9 -15 -7 -17 2 -1 14 -10 27 -18 l23 -16 -31 -22 c-26
-19 -33 -20 -47 -8 -12 9 -15 10 -9 0 4 -7 0 -26 -8 -44 -12 -23 -16 -62 -16
-145 0 -69 -4 -113 -10 -113 -6 0 -10 46 -10 118 0 91 -4 123 -16 140 -9 13
-13 30 -10 38 4 12 2 13 -11 5 -13 -7 -26 -5 -45 7 -35 20 -35 27 -2 48 15 11
21 21 16 26 -14 14 18 110 33 98 8 -7 16 -2 26 16 l13 26 19 -24 c11 -12 25
-22 32 -20z"/>
<path d="M3390 3136 c0 -8 -11 -27 -24 -43 -26 -31 -40 -83 -22 -83 6 0 3 -5
-7 -11 -9 -6 -15 -14 -12 -19 3 -4 -2 -21 -10 -36 -21 -40 -19 -66 3 -62 11 2
17 12 16 28 -1 13 5 31 13 39 11 10 11 16 3 21 -8 5 -6 9 5 14 10 3 15 12 11
21 -3 9 0 15 9 15 8 0 15 3 16 8 3 20 5 122 2 122 -2 0 -3 -6 -3 -14z"/>
<path d="M2894 3099 c-10 -17 13 -36 27 -22 12 12 4 33 -11 33 -5 0 -12 -5
-16 -11z"/>
<path d="M2837 2985 c-8 -18 11 -31 25 -17 11 11 3 32 -12 32 -4 0 -10 -7 -13
-15z"/>
<path d="M2774 2919 c-10 -17 13 -36 27 -22 12 12 4 33 -11 33 -5 0 -12 -5
-16 -11z"/>
<path d="M2904 2909 c-10 -17 13 -36 27 -22 12 12 4 33 -11 33 -5 0 -12 -5
-16 -11z"/>
<path d="M3289 2858 c-1 -7 -1 -17 0 -21 1 -5 -3 -6 -8 -2 -12 7 -44 -51 -38
-68 3 -11 -3 -20 -57 -83 -21 -26 -24 -34 -12 -34 22 0 55 35 72 75 15 38 34
54 34 31 0 -9 5 -16 10 -16 11 0 14 7 25 54 5 24 3 28 -11 22 -16 -6 -17 -5
-2 11 28 33 30 43 9 43 -12 0 -22 -6 -22 -12z"/>
<path d="M2865 2850 c-7 -12 2 -30 16 -30 5 0 9 9 9 20 0 21 -15 27 -25 10z"/>
<path d="M2817 2814 c-9 -10 2 -24 19 -24 8 0 14 7 14 15 0 15 -21 21 -33 9z"/>
<path d="M2906 2733 c-12 -12 -6 -33 9 -33 8 0 15 6 15 14 0 17 -14 28 -24 19z"/>
<path d="M3255 2704 c-9 -14 -14 -28 -11 -31 7 -7 34 15 47 39 16 29 -16 23
-36 -8z"/>
<path d="M4292 3358 c-24 -12 -36 -42 -30 -79 2 -17 14 -27 43 -37 78 -27 85
-31 79 -47 -8 -20 -73 -20 -80 0 -6 16 -54 21 -54 6 0 -4 9 -20 21 -35 17 -22
28 -26 70 -26 58 0 89 24 89 69 0 35 -12 45 -75 64 -54 15 -71 41 -35 52 13 4
31 0 45 -9 29 -19 55 -21 55 -3 0 20 -14 35 -43 46 -35 13 -55 13 -85 -1z"/>
<path d="M3820 3250 l0 -110 65 0 c57 0 69 3 90 25 28 27 32 66 10 85 -11 9
-13 16 -5 24 16 16 12 51 -8 69 -13 12 -37 17 -85 17 l-67 0 0 -110z m125 50
c0 -10 -12 -16 -37 -18 -33 -3 -38 0 -38 18 0 18 5 21 38 18 25 -2 37 -8 37
-18z m-7 -69 c8 -5 12 -17 10 -27 -2 -14 -13 -20 -41 -22 -35 -3 -37 -2 -37
27 0 27 3 31 28 31 15 0 33 -4 40 -9z"/>
<path d="M4020 3249 c0 -109 0 -110 23 -107 21 3 22 8 25 93 l3 91 34 -4 35
-4 0 -89 c0 -88 0 -89 25 -89 25 0 25 1 25 90 l0 90 30 0 c23 0 30 4 30 20 0
19 -7 20 -115 20 l-115 0 0 -111z"/>
<path d="M4522 3253 c2 -88 6 -108 18 -108 8 0 14 6 12 14 -2 8 0 27 3 42 6
26 11 29 46 29 72 0 113 66 69 110 -16 16 -33 20 -85 20 l-66 0 3 -107z m123
42 c0 -28 -3 -30 -42 -33 l-43 -3 0 39 0 38 43 -5 c39 -6 42 -8 42 -36z"/>
<path d="M4700 3345 c0 -8 7 -15 15 -15 8 0 15 7 15 15 0 8 -7 15 -15 15 -8 0
-15 -7 -15 -15z"/>
<path d="M4760 3250 c0 -91 3 -110 15 -110 12 0 15 19 15 110 0 91 -3 110 -15
110 -12 0 -15 -19 -15 -110z"/>
<path d="M5120 3346 c0 -9 7 -16 16 -16 9 0 14 5 12 12 -6 18 -28 21 -28 4z"/>
<path d="M4842 3300 c-23 -10 -39 -36 -28 -47 3 -3 14 1 24 10 26 23 62 22 62
-2 0 -14 -10 -21 -37 -26 -47 -8 -63 -21 -63 -49 0 -31 19 -46 55 -46 17 0 36
5 43 12 9 9 12 9 12 0 0 -7 9 -12 21 -12 16 0 19 4 14 18 -4 9 -9 43 -12 75
-5 50 -9 60 -30 68 -29 11 -31 11 -61 -1z m62 -88 c10 -16 -25 -53 -47 -50
-31 4 -29 40 3 49 36 10 38 10 44 1z"/>
<path d="M5011 3301 c-7 -5 -22 -6 -32 -4 -17 5 -19 -1 -19 -76 0 -65 3 -81
15 -81 11 0 15 13 15 53 0 59 17 91 45 86 22 -5 33 -35 34 -96 1 -24 6 -43 11
-43 12 0 14 129 2 147 -10 16 -54 25 -71 14z"/>
<path d="M4700 3220 c0 -64 3 -80 15 -80 12 0 15 16 15 80 0 64 -3 80 -15 80
-12 0 -15 -16 -15 -80z"/>
<path d="M5120 3219 c0 -60 3 -80 13 -76 18 6 20 157 1 157 -11 0 -14 -18 -14
-81z"/>
<path d="M3827 3083 c-11 -10 -8 -53 3 -53 6 0 10 4 10 9 0 5 9 11 20 14 28 7
26 37 -3 37 -13 0 -27 -3 -30 -7z m38 -13 c-3 -5 -10 -10 -16 -10 -5 0 -9 5
-9 10 0 6 7 10 16 10 8 0 12 -4 9 -10z"/>
<path d="M3896 3068 c-9 -35 -7 -41 9 -34 8 3 15 1 15 -4 0 -6 11 -10 25 -10
18 0 25 5 25 19 0 20 -23 45 -33 34 -4 -3 -13 -1 -21 6 -11 9 -15 7 -20 -11z
m51 -14 c-3 -3 -12 -4 -19 -1 -8 3 -5 6 6 6 11 1 17 -2 13 -5z"/>
<path d="M4120 3055 c0 -31 3 -35 25 -35 18 0 26 7 31 24 8 32 -2 46 -32 46
-21 0 -24 -5 -24 -35z m45 0 c0 -11 -8 -21 -17 -23 -14 -3 -18 3 -18 23 0 20
4 26 18 23 9 -2 17 -12 17 -23z"/>
<path d="M4241 3058 c-1 -32 2 -38 19 -38 15 0 20 7 20 25 0 15 -6 25 -14 25
-8 0 -17 6 -19 13 -3 6 -6 -5 -6 -25z m29 -13 c0 -8 -4 -15 -10 -15 -5 0 -10
7 -10 15 0 8 5 15 10 15 6 0 10 -7 10 -15z"/>
<path d="M4435 3070 c-9 -27 11 -50 41 -50 17 0 24 6 24 20 0 12 -7 20 -17 20
-15 0 -16 -2 -3 -10 12 -8 12 -10 -4 -16 -11 -4 -21 -2 -27 7 -13 20 -6 32 22
40 24 7 24 7 -3 8 -19 1 -29 -5 -33 -19z"/>
<path d="M4680 3060 c0 -16 5 -30 10 -30 6 0 10 5 10 10 0 17 28 11 33 -7 3
-10 5 0 5 22 0 22 -2 32 -5 23 -5 -22 -33 -24 -33 -3 0 8 -4 15 -10 15 -5 0
-10 -13 -10 -30z"/>
<path d="M4830 3080 c0 -5 -7 -10 -15 -10 -9 0 -15 -9 -15 -25 0 -18 5 -25 20
-25 16 0 20 7 20 35 0 19 -2 35 -5 35 -3 0 -5 -4 -5 -10z m0 -35 c0 -8 -4 -15
-10 -15 -5 0 -10 7 -10 15 0 8 5 15 10 15 6 0 10 -7 10 -15z"/>
<path d="M4980 3072 c0 -11 -3 -13 -11 -5 -7 7 -23 8 -45 3 -19 -4 -36 -4 -39
1 -3 4 -12 6 -21 2 -22 -8 -13 -47 11 -50 19 -3 19 -3 1 5 -19 8 -19 9 2 14
13 4 22 2 22 -5 0 -7 5 -4 11 6 5 9 20 17 32 17 20 -1 20 -2 5 -11 -35 -20
-17 -29 57 -27 71 1 75 2 75 23 0 24 -25 41 -35 25 -4 -6 0 -10 7 -10 9 0 9
-3 -2 -10 -11 -7 -17 -4 -22 9 -9 24 -48 35 -48 13z m40 -27 c0 -8 -4 -15 -9
-15 -13 0 -22 16 -14 24 11 11 23 6 23 -9z"/>
<path d="M5120 3080 c0 -5 -6 -9 -12 -7 -8 1 -14 -10 -16 -25 -3 -23 1 -28 17
-28 17 0 21 6 21 35 0 19 -2 35 -5 35 -3 0 -5 -4 -5 -10z m0 -35 c0 -8 -4 -15
-10 -15 -5 0 -10 7 -10 15 0 8 5 15 10 15 6 0 10 -7 10 -15z"/>
<path d="M4072 3060 c0 -14 2 -19 5 -12 2 6 2 18 0 25 -3 6 -5 1 -5 -13z"/>
<path d="M4296 3071 c-4 -5 2 -12 11 -14 17 -4 17 -5 1 -6 -32 -2 -21 -31 12
-31 26 0 30 3 29 28 l-1 27 -7 -25 -8 -25 -4 24 c-4 26 -23 39 -33 22z"/>
<path d="M4566 3071 c-4 -5 2 -11 11 -13 15 -3 14 -5 -4 -10 -16 -4 -23 -2
-23 8 0 8 -9 14 -20 14 -14 0 -20 -7 -20 -24 0 -22 4 -24 49 -24 48 -1 49 0
42 25 -8 28 -25 40 -35 24z m-26 -26 c0 -8 -4 -15 -10 -15 -5 0 -10 7 -10 15
0 8 5 15 10 15 6 0 10 -7 10 -15z"/>
<path d="M3981 3048 c1 -17 2 -19 6 -5 6 24 21 21 26 -5 4 -20 4 -19 6 5 1 21
-4 27 -19 27 -14 0 -20 -6 -19 -22z"/>
<path d="M4032 3045 c0 -16 2 -22 5 -12 2 9 2 23 0 30 -3 6 -5 -1 -5 -18z"/>
<path d="M4191 3048 c-1 -22 4 -28 19 -28 15 0 20 6 19 28 -2 23 -2 24 -6 5
-2 -13 -8 -23 -13 -23 -5 0 -11 10 -13 23 -4 19 -4 18 -6 -5z"/>
<path d="M4754 3036 c1 -20 4 -36 7 -36 10 0 32 60 25 67 -3 3 -6 -2 -6 -12 0
-18 0 -18 -13 -1 -12 17 -14 15 -13 -18z"/>
<path d="M4314 2833 c2 -10 10 -37 17 -61 15 -52 30 -50 44 9 12 48 19 44 30
-14 8 -44 32 -49 41 -9 3 15 10 40 15 56 5 16 7 32 4 35 -8 7 -25 -20 -25 -41
0 -9 -3 -25 -7 -35 -5 -14 -10 -7 -18 26 -14 59 -30 62 -48 9 l-14 -43 -12 43
c-6 23 -16 42 -22 42 -6 0 -8 -8 -5 -17z"/>
<path d="M4640 2790 c0 -60 12 -79 24 -37 l7 22 16 -22 c23 -34 37 -28 16 7
-17 29 -17 30 2 45 27 19 6 19 -23 -1 -21 -15 -22 -14 -22 15 0 17 -4 31 -10
31 -6 0 -10 -27 -10 -60z"/>
<path d="M4793 2790 c0 -36 2 -50 4 -32 2 17 2 47 0 65 -2 17 -4 3 -4 -33z"/>
<path d="M4934 2833 c-16 -27 2 -103 24 -102 11 0 12 3 5 6 -7 2 -13 20 -13
39 0 20 5 34 13 34 8 0 9 3 1 8 -6 4 -13 13 -15 20 -3 8 -7 7 -15 -5z"/>
<path d="M5338 2832 c-7 -26 5 -95 17 -99 13 -4 10 96 -3 109 -6 6 -11 2 -14
-10z"/>
<path d="M5550 2835 c0 -9 -9 -15 -25 -15 -32 0 -51 -34 -36 -66 8 -19 18 -24
46 -24 l35 0 0 60 c0 33 -4 60 -10 60 -5 0 -10 -7 -10 -15z m-12 -34 c21 -13
11 -56 -13 -56 -20 0 -31 25 -21 51 6 16 15 17 34 5z"/>
<path d="M4491 2806 c-7 -8 -11 -27 -9 -43 2 -23 9 -29 33 -31 46 -6 71 40 39
72 -19 20 -48 20 -63 2z m57 -40 c-4 -28 -34 -32 -47 -7 -9 15 -7 23 5 36 20
20 46 2 42 -29z"/>
<path d="M4580 2779 c0 -21 5 -41 10 -44 6 -4 10 7 10 25 0 18 6 33 15 36 23
9 18 22 -10 22 -22 0 -25 -5 -25 -39z"/>
<path d="M4830 2773 c0 -53 18 -57 22 -5 2 25 8 37 18 37 10 0 16 -12 18 -37
4 -46 22 -51 22 -5 0 45 -12 58 -48 55 -31 -2 -32 -4 -32 -45z"/>
<path d="M4992 2808 c-16 -16 -15 -53 2 -68 19 -15 58 -9 64 10 5 13 3 13 -11
1 -18 -14 -47 -9 -47 9 0 5 14 10 30 10 18 0 30 5 30 13 0 18 -21 37 -40 37
-9 0 -21 -5 -28 -12z m48 -19 c0 -5 -9 -9 -20 -9 -22 0 -27 16 -7 23 15 5 27
-1 27 -14z"/>
<path d="M5080 2801 c-16 -31 4 -71 35 -71 25 0 33 -14 15 -25 -6 -4 -18 -1
-26 6 -16 13 -30 6 -19 -10 8 -15 48 -14 63 1 7 7 12 36 12 65 l0 53 -35 0
c-24 0 -37 -6 -45 -19z m55 -27 c0 -32 -21 -39 -38 -12 -8 12 -7 21 3 32 19
24 35 14 35 -20z"/>
<path d="M5180 2772 c0 -26 4 -41 10 -37 6 3 10 16 10 27 0 12 7 29 16 39 14
16 13 17 -10 15 -24 -1 -26 -5 -26 -44z"/>
<path d="M5247 2813 c-15 -14 -6 -23 12 -13 26 13 31 13 31 -4 0 -8 -10 -16
-22 -18 -15 -2 -24 -11 -26 -25 -3 -21 1 -23 37 -23 40 0 40 0 35 33 -3 17 -7
38 -10 45 -4 13 -46 17 -57 5z m43 -58 c0 -8 -6 -15 -14 -15 -17 0 -28 14 -19
24 12 12 33 6 33 -9z"/>
<path d="M5401 2806 c-7 -8 -11 -27 -9 -43 2 -22 9 -29 32 -31 31 -4 55 11 37
22 -6 4 -11 2 -11 -3 0 -6 -9 -11 -20 -11 -11 0 -20 7 -20 15 0 10 10 15 30
15 31 0 39 17 18 38 -16 16 -43 15 -57 -2z m49 -17 c0 -5 -9 -9 -20 -9 -19 0
-26 11 -14 23 8 8 34 -3 34 -14z"/>
<path d="M3840 2586 l0 -66 48 2 c43 1 44 2 10 5 l-38 4 0 54 c0 30 -4 57 -10
60 -6 4 -10 -18 -10 -59z"/>
<path d="M4285 2640 c-3 -5 -1 -10 4 -10 6 0 11 5 11 10 0 6 -2 10 -4 10 -3 0
-8 -4 -11 -10z"/>
<path d="M4581 2583 c1 -38 4 -56 6 -40 4 22 10 27 32 27 31 0 51 16 51 42 0
21 -29 38 -64 38 -25 0 -26 -1 -25 -67z m69 27 c0 -16 -7 -20 -30 -20 -23 0
-30 4 -30 20 0 16 7 20 30 20 23 0 30 -4 30 -20z"/>
<path d="M3950 2600 c-21 -16 -23 -22 -14 -47 7 -22 16 -28 38 -28 17 0 31 6
34 15 5 13 3 13 -12 1 -15 -12 -19 -12 -34 2 -15 16 -14 17 22 17 29 0 37 4
34 16 -2 9 -12 23 -23 30 -17 11 -24 10 -45 -6z m48 -18 c2 -7 -6 -12 -17 -12
-21 0 -27 11 -14 24 9 9 26 2 31 -12z"/>
<path d="M4047 2609 c-9 -6 -15 -15 -11 -20 4 -6 11 -6 20 2 11 9 18 9 26 1
11 -11 11 -12 -37 -27 -8 -2 -15 -14 -15 -25 0 -17 6 -20 40 -20 39 0 40 1 40
34 0 19 -7 42 -16 50 -18 19 -23 19 -47 5z m41 -61 c-7 -19 -38 -22 -38 -4 0
10 9 16 21 16 12 0 19 -5 17 -12z"/>
<path d="M4208 2613 c-14 -3 -18 -15 -18 -49 0 -54 18 -59 22 -6 4 52 31 50
39 -3 l6 -40 2 46 c1 34 -3 48 -15 53 -9 3 -16 5 -17 5 -1 -1 -10 -3 -19 -6z"/>
<path d="M4355 2610 c-3 -5 -12 -7 -20 -3 -12 4 -15 -5 -15 -41 0 -25 5 -46
10 -46 6 0 10 11 10 24 0 35 10 56 26 56 10 0 14 -12 14 -40 0 -22 5 -40 10
-40 6 0 10 18 10 40 0 29 -5 42 -19 50 -13 6 -22 7 -26 0z"/>
<path d="M4437 2602 c-33 -36 -15 -82 31 -82 20 0 22 -2 12 -15 -9 -11 -17
-12 -32 -4 -11 6 -22 8 -25 5 -3 -3 6 -11 20 -17 40 -18 57 2 57 67 0 30 -4
54 -9 54 -5 0 -16 2 -23 5 -8 3 -22 -3 -31 -13z m42 -21 c7 -13 6 -23 -3 -36
-16 -22 -36 -12 -36 19 0 39 22 49 39 17z"/>
<path d="M4773 2609 c-47 -17 -37 -89 11 -89 30 0 46 18 46 52 0 32 -25 49
-57 37z m41 -31 c8 -14 7 -22 -7 -35 -16 -16 -18 -16 -33 -1 -10 10 -14 23 -9
37 8 25 33 24 49 -1z"/>
<path d="M4973 2612 c-20 -3 -23 -9 -23 -48 0 -24 5 -44 10 -44 6 0 10 12 10
27 0 14 7 35 17 45 19 21 16 25 -14 20z"/>
<path d="M5033 2609 c-13 -4 -23 -13 -23 -19 0 -7 6 -8 19 0 26 13 31 13 31
-4 0 -8 -10 -16 -22 -18 -15 -2 -24 -11 -26 -25 -3 -21 1 -23 37 -23 l40 0 -6
38 c-7 48 -21 63 -50 51z m25 -65 c-9 -9 -21 -13 -27 -9 -16 10 -3 25 22 25
20 0 20 -1 5 -16z"/>
<path d="M5128 2612 c-26 -3 -28 -7 -28 -48 0 -24 5 -44 10 -44 6 0 10 15 10
34 0 20 6 36 14 39 20 8 26 -2 26 -40 0 -45 18 -42 22 5 4 52 31 50 39 -3 l6
-40 2 46 c1 49 -13 65 -40 49 -7 -5 -18 -6 -24 -2 -5 4 -22 6 -37 4z"/>
<path d="M5285 2610 c-4 -6 -11 -8 -16 -5 -5 4 -9 -14 -9 -39 0 -55 17 -62 22
-9 4 52 28 56 28 4 0 -51 18 -54 22 -3 2 25 8 37 18 37 10 0 16 -12 18 -37 4
-50 22 -49 22 2 0 44 -23 65 -52 49 -11 -6 -19 -6 -23 1 -8 13 -22 13 -30 0z"/>
<path d="M5422 2604 c-25 -17 -29 -56 -8 -74 19 -15 58 -9 64 10 5 13 3 13
-11 1 -18 -14 -47 -9 -47 9 0 5 16 10 36 10 27 0 35 4 32 16 -2 9 -12 23 -23
30 -18 12 -24 11 -43 -2z m32 -10 c20 -8 11 -24 -15 -24 -19 0 -25 11 -12 23
8 8 8 8 27 1z"/>
<path d="M5517 2609 c-26 -15 -20 -39 14 -51 22 -8 28 -13 20 -21 -9 -9 -17
-8 -32 2 -18 10 -20 10 -17 -1 3 -7 18 -13 34 -13 39 0 46 31 9 45 -29 11 -24
34 6 25 24 -8 25 1 1 14 -11 6 -24 6 -35 0z"/>
<path d="M4131 2560 c1 -44 1 -44 9 -12 4 18 16 39 26 47 18 14 17 14 -8 13
-26 -2 -28 -5 -27 -48z"/>
<path d="M4287 2603 c-11 -10 -8 -83 3 -83 6 0 10 20 10 45 0 46 -2 50 -13 38z"/>
<path d="M4691 2560 c1 -44 1 -44 9 -12 4 18 16 39 26 47 18 14 17 14 -8 13
-26 -2 -28 -5 -27 -48z"/>
<path d="M4849 2589 c-16 -31 3 -69 36 -69 14 0 25 -4 25 -9 0 -13 -28 -22
-35 -11 -8 13 -25 13 -25 1 0 -16 38 -23 60 -11 16 9 20 21 20 65 l0 55 -35 0
c-25 0 -37 -6 -46 -21z m45 5 c18 -7 22 -49 5 -60 -18 -10 -42 21 -34 45 7 23
7 23 29 15z"/>
<path d="M3325 2520 c-141 -65 -292 -66 -427 0 -23 11 -47 20 -53 20 -11 0
-85 -101 -85 -115 0 -3 33 -22 73 -41 131 -62 268 -78 415 -48 86 17 222 76
222 96 0 16 -68 118 -78 117 -4 0 -34 -13 -67 -29z m67 -47 c2 -10 -5 -26 -14
-35 -22 -22 -29 -23 -22 -3 4 9 -1 18 -11 21 -15 6 -14 9 6 20 32 18 37 17 41
-3z m-500 -33 l-9 -24 -5 22 c-4 12 -2 20 3 16 5 -3 9 0 9 7 0 7 2 10 5 7 3
-3 2 -16 -3 -28z m-36 -17 c-6 -21 -9 -24 -17 -12 -12 19 -11 32 1 24 6 -3 10
2 10 11 0 10 3 15 6 11 4 -3 3 -18 0 -34z m460 15 c-1 -14 -8 -23 -19 -24 -12
-1 -13 -1 -2 3 21 6 19 23 -2 24 -15 0 -15 2 2 9 11 5 21 9 21 9 1 1 1 -9 0
-21z m-349 4 c8 -5 9 -13 3 -22 -8 -13 -10 -13 -10 2 0 9 -6 19 -12 21 -7 3
-8 6 -3 6 6 0 15 -3 22 -7z m123 -32 c0 -5 -2 -10 -4 -10 -3 0 -8 5 -11 10 -3
6 -1 10 4 10 6 0 11 -4 11 -10z m50 -20 c5 0 11 8 13 18 3 11 5 9 6 -8 1 -20
-4 -25 -25 -26 -19 -2 -24 2 -20 13 3 8 7 20 7 26 1 7 3 4 6 -5 2 -10 8 -18
13 -18z m116 2 c1 -7 0 -8 -3 -2 -2 5 -9 10 -14 10 -6 0 -7 -5 -3 -12 4 -7 3
-8 -4 -4 -7 4 -12 12 -12 17 0 15 33 7 36 -9z m-216 -24 c0 -6 -6 -5 -15 2 -8
7 -15 14 -15 16 0 2 7 1 15 -2 8 -4 15 -11 15 -16z m50 16 c0 -8 -19 -13 -24
-6 -3 5 1 9 9 9 8 0 15 -2 15 -3z"/>
<path d="M3361 2471 c-10 -6 -10 -10 -1 -16 13 -8 24 -1 19 14 -3 6 -10 7 -18
2z"/>
</g>
</svg>
