<?xml version="1.0" standalone="no"?>
<!DOCTYPE svg PUBLIC "-//W3C//DTD SVG 20010904//EN"
 "http://www.w3.org/TR/2001/REC-SVG-20010904/DTD/svg10.dtd">
<svg version="1.0" xmlns="http://www.w3.org/2000/svg"
 width="497.000000pt" height="481.000000pt" viewBox="0 0 497.000000 481.000000"
 preserveAspectRatio="xMidYMid meet">

<g transform="translate(0.000000,481.000000) scale(0.100000,-0.100000)"
fill="#000000" stroke="none">
<path d="M0 2405 l0 -2405 2485 0 2485 0 0 2405 0 2405 -2485 0 -2485 0 0
-2405z m2276 -860 c21 -60 41 -113 42 -117 2 -4 -6 -8 -18 -8 -14 0 -24 9 -31
30 -10 27 -15 30 -54 30 -39 0 -44 -3 -54 -30 -7 -20 -17 -30 -30 -30 l-21 0
21 53 c12 28 32 81 46 117 24 63 42 87 54 72 3 -4 23 -56 45 -117z m522 15
c22 -58 43 -113 47 -122 6 -15 2 -18 -18 -18 -20 0 -27 6 -32 30 -6 28 -10 30
-51 30 -41 0 -46 -3 -55 -30 -7 -19 -18 -30 -30 -30 -17 0 -17 3 -5 38 57 157
89 222 103 209 1 -2 19 -50 41 -107z m-822 19 c76 -90 79 -89 72 18 -3 55 -2
63 14 63 16 0 18 -11 18 -120 0 -66 -3 -120 -7 -120 -5 0 -40 34 -80 77 l-72
78 -1 -77 c0 -71 -2 -78 -20 -78 -19 0 -20 7 -20 120 0 93 3 120 13 120 8 0
45 -36 83 -81z m459 4 l50 -72 48 75 c68 106 77 101 77 -46 0 -113 -1 -120
-20 -120 -18 0 -20 7 -20 78 l0 77 -40 -62 c-22 -35 -43 -63 -45 -63 -3 0 -25
27 -50 61 l-45 61 0 -76 c0 -61 -3 -76 -15 -76 -12 0 -15 18 -15 104 0 57 -3
112 -6 121 -5 13 -2 16 12 13 10 -2 41 -35 69 -75z m542 -2 l68 -79 3 79 c2
61 6 79 17 79 12 0 15 -20 15 -104 0 -57 3 -111 6 -120 15 -39 -27 -10 -94 65
l-72 80 0 -80 c0 -74 -2 -81 -20 -81 -19 0 -20 7 -20 120 0 97 3 120 14 120 8
0 45 -36 83 -79z"/>
<path d="M2202 1561 c-17 -47 -15 -51 13 -51 28 0 30 11 11 55 l-12 30 -12
-34z"/>
<path d="M2732 1565 c-18 -40 -15 -55 13 -55 29 0 30 6 12 49 l-13 32 -12 -26z"/>
</g>
</svg>
