<svg xmlns="http://www.w3.org/2000/svg" version="1.1" xmlns:xlink="http://www.w3.org/1999/xlink" xmlns:svgjs="http://svgjs.dev/svgjs" viewBox="0 0 7.309322564806947 7.798626288580816"><g transform="matrix(1,0,0,1,0.6291015900206607,6.119524698560156)"><rect width="7.798626288580816" height="7.798626288580816" x="-0.8737534519075951" y="-6.119524698560156" fill="#ffffff"></rect><g><path d=" M 1.038 0 L 1.038 1.05 L 0.975 1.05 L 0.2595 0.138 L 0.2595 1.05 L 0.183 1.05 L 0.183 0 L 0.2475 0 L 0.9615 0.912 L 0.9615 0 L 1.038 0 M 2.068538818359375 0.7545000000000001 L 1.4595388183593752 0.7545000000000001 L 1.3260388183593752 1.05 L 1.2435388183593752 1.05 L 1.726538818359375 0 L 1.8030388183593753 0 L 2.2860388183593754 1.05 L 2.203538818359375 1.05 L 2.068538818359375 0.7545000000000001 M 2.040038818359375 0.6900000000000001 L 1.7640388183593751 0.08400000000000007 L 1.4895388183593752 0.6900000000000001 L 2.040038818359375 0.6900000000000001 M 3.4845644531250004 1.05 L 3.4830644531250003 0.15150000000000008 L 3.043564453125 0.9105000000000001 L 3.006064453125 0.9105000000000001 L 2.5665644531250003 0.15449999999999997 L 2.5665644531250003 1.05 L 2.491564453125 1.05 L 2.491564453125 0 L 2.5560644531250003 0 L 3.0255644531250003 0.8115 L 3.4950644531250004 0 L 3.5580644531250005 0 L 3.5595644531250006 1.05 L 3.4845644531250004 1.05 M 4.590054931640625 0.7545000000000001 L 3.9810549316406254 0.7545000000000001 L 3.8475549316406252 1.05 L 3.765054931640625 1.05 L 4.248054931640626 0 L 4.324554931640625 0 L 4.807554931640626 1.05 L 4.725054931640625 1.05 L 4.590054931640625 0.7545000000000001 M 4.561554931640625 0.6900000000000001 L 4.285554931640625 0.08400000000000007 L 4.011054931640626 0.6900000000000001 L 4.561554931640625 0.6900000000000001 M 5.868080566406251 0 L 5.868080566406251 1.05 L 5.80508056640625 1.05 L 5.089580566406251 0.138 L 5.089580566406251 1.05 L 5.01308056640625 1.05 L 5.01308056640625 0 L 5.07758056640625 0 L 5.7915805664062505 0.912 L 5.7915805664062505 0 L 5.868080566406251 0" fill="#231f20" fill-rule="nonzero"></path></g><g></g><g clip-path="url(#SvgjsClipPath1002)"><g clip-path="url(#a81419f2f-e0e3-48e8-84ae-42009652f85c4f3aaed3-aec3-4bd7-9db3-7bbe3d5f4937)"><path d=" M 2.6911056817476346 -2.239583125684887 L 2.2796842910327326 -2.239583125684887 C 2.1054175468097958 -2.239583125684887 1.9628280078406495 -2.097000065996832 1.9628280078406495 -1.9227268424928043 L 1.9628280078406495 -1.9186060197189425 C 1.9628280078406495 -1.7443327962149149 2.1054175468097958 -1.6017497365268598 2.2796842910327326 -1.6017497365268598 L 4.531778729759127 -1.6017497365268598 C 4.6292012002430685 -1.6017497365268598 4.708902836943184 -1.522041620545652 4.708902836943184 -1.4246256293428026 L 4.708902836943184 -1.1706702069819315" fill="none" transform="matrix(1,0,0,1,0,0)" fill-rule="nonzero" stroke-dasharray="none" stroke-miterlimit="10" stroke-linejoin="miter" stroke-linecap="butt" stroke-width="0.03300545787744043" stroke="#231f20"></path></g><g clip-path="url(#a81419f2f-e0e3-48e8-84ae-42009652f85c4f3aaed3-aec3-4bd7-9db3-7bbe3d5f4937)"><path d=" M 5.4560870530736425 -2.3000477768258913 L 0.5950388109730742 -2.3000477768258913 L 0.5950388109730742 -5.2468377755647335 C 0.5950388109730742 -5.364961549134348 0.690796106216633 -5.460718844377907 0.8089198797862479 -5.460718844377907 L 5.242205984260469 -5.460718844377907 C 5.360329757830082 -5.460718844377907 5.4560870530736425 -5.364961549134348 5.4560870530736425 -5.2468377755647335 Z" fill="#5a5758" transform="matrix(1,0,0,1,0,0)" fill-rule="nonzero"></path></g><g clip-path="url(#a81419f2f-e0e3-48e8-84ae-42009652f85c4f3aaed3-aec3-4bd7-9db3-7bbe3d5f4937)"><path d=" M 5.4560870530736425 -2.3000477768258913 L 0.5950388109730742 -2.3000477768258913 L 0.5950388109730742 -5.2468377755647335 C 0.5950388109730742 -5.364961549134348 0.690796106216633 -5.460718844377907 0.8089198797862479 -5.460718844377907 L 5.242205984260469 -5.460718844377907 C 5.360329757830082 -5.460718844377907 5.4560870530736425 -5.364961549134348 5.4560870530736425 -5.2468377755647335 Z" fill="none" transform="matrix(1,0,0,1,0,0)" fill-rule="nonzero" stroke-dasharray="none" stroke-miterlimit="10" stroke-linejoin="miter" stroke-linecap="butt" stroke-width="0.05940852832317457" stroke="#231f20"></path></g><g clip-path="url(#a81419f2f-e0e3-48e8-84ae-42009652f85c4f3aaed3-aec3-4bd7-9db3-7bbe3d5f4937)"><path d=" M 0.5950388109730738 -2.3000477768258913 L 5.456080573792552 -2.3000477768258913 L 5.456080573792552 -2.022799338942955 C 5.456080573792552 -1.9046755653733407 5.360323278548993 -1.8089182701297815 5.242199504979378 -1.8089182701297815 L 0.8089134005051569 -1.8089182701297815 C 0.6907896269355424 -1.8089182701297815 0.5950323316919829 -1.904682044654432 0.5950323316919829 -2.022799338942955 Z" fill="#ffffff" transform="matrix(1,0,0,1,0,0)" fill-rule="nonzero"></path></g><g clip-path="url(#a81419f2f-e0e3-48e8-84ae-42009652f85c4f3aaed3-aec3-4bd7-9db3-7bbe3d5f4937)"><path d=" M 0.5950388109730738 -2.3000477768258913 L 5.456080573792552 -2.3000477768258913 L 5.456080573792552 -2.022799338942955 C 5.456080573792552 -1.9046755653733407 5.360323278548993 -1.8089182701297815 5.242199504979378 -1.8089182701297815 L 0.8089134005051569 -1.8089182701297815 C 0.6907896269355424 -1.8089182701297815 0.5950323316919829 -1.904682044654432 0.5950323316919829 -2.022799338942955 Z" fill="none" transform="matrix(1,0,0,1,0,0)" fill-rule="nonzero" stroke-dasharray="none" stroke-miterlimit="10" stroke-linejoin="miter" stroke-linecap="butt" stroke-width="0.05940852832317457" stroke="#231f20"></path></g><g clip-path="url(#SvgjsClipPath10004f3aaed3-aec3-4bd7-9db3-7bbe3d5f4937)"><path d=" M 2.7667454532782556 -2.054485914864252 L 3.2843946574797376 -2.054485914864252" fill="none" transform="matrix(1,0,0,1,0,0)" fill-rule="nonzero" stroke-dasharray="none" stroke-miterlimit="10" stroke-linejoin="miter" stroke-linecap="butt" stroke-width="0.05940852832317457" stroke="#231f20"></path></g><g clip-path="url(#SvgjsClipPath10004f3aaed3-aec3-4bd7-9db3-7bbe3d5f4937)"><path d=" M 0.8451325818037223 -2.553154413363844 L 0.9973308946307885 -2.553154413363844 L 0.9973308946307885 -5.042999592442575 L 0.8451325818037223 -5.042999592442575 Z M 0.8451325818037223 -5.050269345826652 L 5.205986802961903 -5.050269345826652 L 5.205986802961903 -5.202467658653719 L 0.8451325818037223 -5.202467658653719 Z" fill="#d3d2d2" transform="matrix(1,0,0,1,0,0)" fill-rule="nonzero" stroke-dasharray="none" stroke-miterlimit="10" stroke-linejoin="miter" stroke-linecap="butt" stroke-width="0.05940852832317457" stroke="#231f20"></path></g><g clip-path="url(#SvgjsClipPath10004f3aaed3-aec3-4bd7-9db3-7bbe3d5f4937)"><path d=" M 0.9973335944567796 -5.016635975523317 L 0.9973335944567796 -5.196351795143766" fill="none" transform="matrix(1,0,0,1,0,0)" fill-rule="nonzero" stroke-dasharray="none" stroke-miterlimit="10" stroke-linejoin="miter" stroke-linecap="butt" stroke-width="0.05940852832317457" stroke="#231f20"></path></g><g clip-path="url(#SvgjsClipPath10004f3aaed3-aec3-4bd7-9db3-7bbe3d5f4937)"><path d=" M 0.9648113828351714 -5.082788857622269 L 0.8776585728804304 -5.082788857622269 L 0.8776585728804304 -5.169941667577011 L 0.9648113828351714 -5.169941667577011 Z" fill="#67c5f0" transform="matrix(1,0,0,1,0,0)" fill-rule="nonzero"></path></g><g clip-path="url(#SvgjsClipPath10004f3aaed3-aec3-4bd7-9db3-7bbe3d5f4937)"><path d=" M 5.205986802961903 -2.553154413363844 L 0.9973308946307886 -2.553154413363844 L 0.9973308946307886 -5.042999592442575 L 5.205986802961903 -5.042999592442575 Z" fill="#ffffff" transform="matrix(1,0,0,1,0,0)" fill-rule="nonzero" stroke-dasharray="none" stroke-miterlimit="10" stroke-linejoin="miter" stroke-linecap="butt" stroke-width="0.05940852832317457" stroke="#231f20"></path></g><g clip-path="url(#SvgjsClipPath10004f3aaed3-aec3-4bd7-9db3-7bbe3d5f4937)"><path d=" M 0.9973335944567796 -4.674150039761033 L 5.205989502787894 -4.674150039761033" fill="none" transform="matrix(1,0,0,1,0,0)" fill-rule="nonzero" stroke-dasharray="none" stroke-miterlimit="10" stroke-linejoin="miter" stroke-linecap="butt" stroke-width="0.05940852832317457" stroke="#231f20"></path></g><g clip-path="url(#SvgjsClipPath10004f3aaed3-aec3-4bd7-9db3-7bbe3d5f4937)"><path d=" M 1.7568740786586698 -5.035753142175164 L 1.7568740786586698 -4.674150943768789" fill="none" transform="matrix(1,0,0,1,0,0)" fill-rule="nonzero" stroke-dasharray="none" stroke-miterlimit="10" stroke-linejoin="miter" stroke-linecap="butt" stroke-width="0.05940852832317457" stroke="#231f20"></path></g><g clip-path="url(#SvgjsClipPath10004f3aaed3-aec3-4bd7-9db3-7bbe3d5f4937)"><path d=" M 1.896651959079033 -4.854956450441065 L 5.067456622257339 -4.854956450441065" fill="none" transform="matrix(1,0,0,1,0,0)" fill-rule="nonzero" stroke-dasharray="none" stroke-miterlimit="10" stroke-linejoin="miter" stroke-linecap="butt" stroke-width="0.05940852832317457" stroke="#231f20"></path></g><g clip-path="url(#SvgjsClipPath10004f3aaed3-aec3-4bd7-9db3-7bbe3d5f4937)"><path d=" M 1.2141341192159936 -4.811864198084127 L 1.1269813092612524 -4.811864198084127 L 1.1269813092612524 -4.899017008038868 L 1.2141341192159936 -4.899017008038868 Z M 1.4164043163141358 -4.811864198084127 L 1.3292515063593946 -4.811864198084127 L 1.3292515063593946 -4.899017008038868 L 1.4164043163141358 -4.899017008038868 Z M 1.6186745134122777 -4.811864198084127 L 1.5315217034575364 -4.811864198084127 L 1.5315217034575364 -4.899017008038868 L 1.6186745134122777 -4.899017008038868 Z" fill="#231f20" transform="matrix(1,0,0,1,0,0)" fill-rule="nonzero"></path></g><g clip-path="url(#SvgjsClipPath10004f3aaed3-aec3-4bd7-9db3-7bbe3d5f4937)"><path d=" M 3.8652421253680687 -0.9533939948770858 L 2.1858837386786476 -0.9533939948770858 L 2.1858837386786476 -1.1593509029159934 L 3.8652421253680687 -1.1593509029159934 Z" fill="#ffffff" transform="matrix(1,0,0,1,0,0)" fill-rule="nonzero" stroke-dasharray="none" stroke-miterlimit="10" stroke-linejoin="miter" stroke-linecap="butt" stroke-width="0.05940852832317457" stroke="#231f20"></path></g><g clip-path="url(#SvgjsClipPath10004f3aaed3-aec3-4bd7-9db3-7bbe3d5f4937)"><path d=" M 3.433222170690743 -1.8089173079541343 L 3.5618553381899236 -1.159356420021438 L 2.489281625670565 -1.159356420021438 L 2.6179147931697453 -1.8089173079541343 Z" fill="#ffffff" transform="matrix(1,0,0,1,0,0)" fill-rule="nonzero"></path></g><g clip-path="url(#SvgjsClipPath10004f3aaed3-aec3-4bd7-9db3-7bbe3d5f4937)"><path d=" M 3.433222170690743 -1.8089173079541343 L 3.5618553381899236 -1.159356420021438 L 2.489281625670565 -1.159356420021438 L 2.6179147931697453 -1.8089173079541343 Z" fill="none" transform="matrix(1,0,0,1,0,0)" fill-rule="nonzero" stroke-dasharray="none" stroke-miterlimit="10" stroke-linejoin="miter" stroke-linecap="butt" stroke-width="0.05940852832317457" stroke="#231f20"></path></g><g clip-path="url(#SvgjsClipPath10004f3aaed3-aec3-4bd7-9db3-7bbe3d5f4937)"><path d=" M 4.969486563860126 -2.823482979041616 L 1.2374206554569678 -2.823482979041616 L 1.2374206554569678 -4.43884550639545 L 4.969486563860126 -4.43884550639545 Z" fill="#67c5f0" transform="matrix(1,0,0,1,0,0)" fill-rule="nonzero"></path></g><g clip-path="url(#b81419f2f-e0e3-48e8-84ae-42009652f85c4f3aaed3-aec3-4bd7-9db3-7bbe3d5f4937)"><path d=" M 5.210911056591047 -0.26759448780254935 L 4.203829917339291 -0.26759448780254935 C 4.129985550745417 -0.26759448780254935 4.070123472745875 -0.3274565658020929 4.070123472745875 -0.40130093239596576 L 4.070123472745875 -1.2639524168487375 C 4.070123472745875 -1.3377967834426094 4.129985550745417 -1.397658861442153 4.203829917339291 -1.397658861442153 L 5.210911056591047 -1.397658861442153 C 5.28475542318492 -1.397658861442153 5.344617501184462 -1.3377967834426094 5.344617501184462 -1.2639524168487375 L 5.344617501184462 -0.40130093239596576 C 5.344617501184462 -0.3274565658020929 5.28475542318492 -0.26759448780254935 5.210911056591047 -0.26759448780254935" fill="#f03f52" transform="matrix(1,0,0,1,0,0)" fill-rule="nonzero"></path></g><g clip-path="url(#b81419f2f-e0e3-48e8-84ae-42009652f85c4f3aaed3-aec3-4bd7-9db3-7bbe3d5f4937)"><path d=" M 5.210911056591047 -0.26759448780254935 L 4.203829917339291 -0.26759448780254935 C 4.129985550745417 -0.26759448780254935 4.070123472745875 -0.3274565658020929 4.070123472745875 -0.40130093239596576 L 4.070123472745875 -1.2639524168487375 C 4.070123472745875 -1.3377967834426094 4.129985550745417 -1.397658861442153 4.203829917339291 -1.397658861442153 L 5.210911056591047 -1.397658861442153 C 5.28475542318492 -1.397658861442153 5.344617501184462 -1.3377967834426094 5.344617501184462 -1.2639524168487375 L 5.344617501184462 -0.40130093239596576 C 5.344617501184462 -0.3274565658020929 5.28475542318492 -0.26759448780254935 5.210911056591047 -0.26759448780254935 Z" fill="none" transform="matrix(1,0,0,1,0,0)" fill-rule="nonzero" stroke-dasharray="none" stroke-miterlimit="10" stroke-linejoin="miter" stroke-linecap="butt" stroke-width="0.03518897560509991" stroke="#231f20"></path></g><g clip-path="url(#b81419f2f-e0e3-48e8-84ae-42009652f85c4f3aaed3-aec3-4bd7-9db3-7bbe3d5f4937)"><path d=" M 4.707367247324623 -0.4292979059900812 C 4.56996761250935 -0.4292979059900812 4.457545606299796 -0.5417199121996354 4.457545606299796 -0.6791195470149081 L 4.457545606299796 -0.999105322973934 C 4.457545606299796 -1.1365049577892066 4.56996761250935 -1.2489269639987608 4.707367247324623 -1.2489269639987608 C 4.844766882139896 -1.2489269639987608 4.95718888834945 -1.1365049577892066 4.95718888834945 -0.999105322973934 L 4.95718888834945 -0.6791195470149081 C 4.95718888834945 -0.5417199121996354 4.844766882139896 -0.4292979059900812 4.707367247324623 -0.4292979059900812" fill="#ffffff" transform="matrix(1,0,0,1,0,0)" fill-rule="nonzero"></path></g><g clip-path="url(#b81419f2f-e0e3-48e8-84ae-42009652f85c4f3aaed3-aec3-4bd7-9db3-7bbe3d5f4937)"><path d=" M 4.707367247324623 -0.4292979059900812 C 4.56996761250935 -0.4292979059900812 4.457545606299796 -0.5417199121996354 4.457545606299796 -0.6791195470149081 L 4.457545606299796 -0.999105322973934 C 4.457545606299796 -1.1365049577892066 4.56996761250935 -1.2489269639987608 4.707367247324623 -1.2489269639987608 C 4.844766882139896 -1.2489269639987608 4.95718888834945 -1.1365049577892066 4.95718888834945 -0.999105322973934 L 4.95718888834945 -0.6791195470149081 C 4.95718888834945 -0.5417199121996354 4.844766882139896 -0.4292979059900812 4.707367247324623 -0.4292979059900812 Z" fill="none" transform="matrix(1,0,0,1,0,0)" fill-rule="nonzero" stroke-dasharray="none" stroke-miterlimit="10" stroke-linejoin="miter" stroke-linecap="butt" stroke-width="0.03518897560509991" stroke="#231f20"></path></g><g clip-path="url(#SvgjsClipPath10004f3aaed3-aec3-4bd7-9db3-7bbe3d5f4937)"><path d=" M 4.457560196332837 -0.9744777669131723 L 4.9451520155532736 -0.9744777669131723 M 4.707381837357664 -1.2489271553648056 L 4.707381837357664 -0.9744777669131723" fill="none" transform="matrix(1,0,0,1,0,0)" fill-rule="nonzero" stroke-dasharray="none" stroke-miterlimit="10" stroke-linejoin="miter" stroke-linecap="butt" stroke-width="0.03518897560509991" stroke="#231f20"></path></g><g clip-path="url(#c81419f2f-e0e3-48e8-84ae-42009652f85c4f3aaed3-aec3-4bd7-9db3-7bbe3d5f4937)"><path d=" M 1.672271126596845 -0.2713200744298625 L 1.1737487601759296 -0.2713200744298625 C 1.1086319852116033 -0.2713200744298625 1.055851761444499 -0.3241067774780575 1.055851761444499 -0.3892170731612925 L 1.055851761444499 -1.527374068883527 C 1.055851761444499 -1.592484364566762 1.1086319852116033 -1.6452645883338666 1.1737487601759296 -1.6452645883338666 L 1.672271126596845 -1.6452645883338666 C 1.7373879015611708 -1.6452645883338666 1.7901681253282755 -1.592484364566762 1.7901681253282755 -1.527374068883527 L 1.7901681253282755 -0.3892170731612925 C 1.7901681253282755 -0.3241067774780575 1.7373879015611708 -0.2713200744298625 1.672271126596845 -0.2713200744298625 M 1.055851761444499 -1.4581623882697032 L 1.7901681253282755 -1.4581623882697032" fill="#ffffff" transform="matrix(1,0,0,1,0,0)" fill-rule="nonzero"></path></g><g clip-path="url(#c81419f2f-e0e3-48e8-84ae-42009652f85c4f3aaed3-aec3-4bd7-9db3-7bbe3d5f4937)"><path d=" M 1.672271126596845 -0.2713200744298625 L 1.1737487601759296 -0.2713200744298625 C 1.1086319852116033 -0.2713200744298625 1.055851761444499 -0.3241067774780575 1.055851761444499 -0.3892170731612925 L 1.055851761444499 -1.527374068883527 C 1.055851761444499 -1.592484364566762 1.1086319852116033 -1.6452645883338666 1.1737487601759296 -1.6452645883338666 L 1.672271126596845 -1.6452645883338666 C 1.7373879015611708 -1.6452645883338666 1.7901681253282755 -1.592484364566762 1.7901681253282755 -1.527374068883527 L 1.7901681253282755 -0.3892170731612925 C 1.7901681253282755 -0.3241067774780575 1.7373879015611708 -0.2713200744298625 1.672271126596845 -0.2713200744298625 Z M 1.055851761444499 -1.4581623882697032 L 1.7901681253282755 -1.4581623882697032" fill="none" transform="matrix(1,0,0,1,0,0)" fill-rule="nonzero" stroke-dasharray="none" stroke-miterlimit="10" stroke-linejoin="miter" stroke-linecap="butt" stroke-width="0.03300545787744043" stroke="#231f20"></path></g><g clip-path="url(#SvgjsClipPath10004f3aaed3-aec3-4bd7-9db3-7bbe3d5f4937)"><path d=" M 1.6908666633279512 -0.8323610240976214 L 1.1578226872543063 -0.8323610240976214 L 1.1578226872543063 -1.3460773046768795 L 1.6908666633279512 -1.3460773046768795 Z" fill="#67c5f0" transform="matrix(1,0,0,1,0,0)" fill-rule="nonzero"></path></g><g clip-path="url(#SvgjsClipPath10004f3aaed3-aec3-4bd7-9db3-7bbe3d5f4937)"><path d=" M 1.1578274081351043 -0.7238601675904288 L 1.690871384208749 -0.7238601675904288" fill="none" transform="matrix(1,0,0,1,0,0)" fill-rule="nonzero" stroke-dasharray="none" stroke-miterlimit="10" stroke-linejoin="miter" stroke-linecap="butt" stroke-width="0.03300545787744043" stroke="#231f20"></path></g><g clip-path="url(#SvgjsClipPath10004f3aaed3-aec3-4bd7-9db3-7bbe3d5f4937)"><path d=" M 1.1578274081351043 -0.6169323244264158 L 1.690871384208749 -0.6169323244264158" fill="none" transform="matrix(1,0,0,1,0,0)" fill-rule="nonzero" stroke-dasharray="none" stroke-miterlimit="10" stroke-linejoin="miter" stroke-linecap="butt" stroke-width="0.03300545787744043" stroke="#231f20"></path></g><g clip-path="url(#SvgjsClipPath10004f3aaed3-aec3-4bd7-9db3-7bbe3d5f4937)"><path d=" M 1.1578274081351043 -0.5099996217894356 L 1.690871384208749 -0.5099996217894356" fill="none" transform="matrix(1,0,0,1,0,0)" fill-rule="nonzero" stroke-dasharray="none" stroke-miterlimit="10" stroke-linejoin="miter" stroke-linecap="butt" stroke-width="0.03300545787744043" stroke="#231f20"></path></g><g clip-path="url(#SvgjsClipPath10004f3aaed3-aec3-4bd7-9db3-7bbe3d5f4937)"><path d=" M 1.1578274081351043 -0.4030717786254234 L 1.690871384208749 -0.4030717786254234" fill="none" transform="matrix(1,0,0,1,0,0)" fill-rule="nonzero" stroke-dasharray="none" stroke-miterlimit="10" stroke-linejoin="miter" stroke-linecap="butt" stroke-width="0.03300545787744043" stroke="#231f20"></path></g><g clip-path="url(#SvgjsClipPath10004f3aaed3-aec3-4bd7-9db3-7bbe3d5f4937)"><path d=" M 1.2062423548471828 -1.527374068883527 L 1.1578226872543063 -1.527374068883527 L 1.1578226872543063 -1.5757937364764034 L 1.2062423548471828 -1.5757937364764034 Z M 1.3111289571479299 -1.527374068883527 L 1.2627092895550533 -1.527374068883527 L 1.2627092895550533 -1.5757937364764034 L 1.3111289571479299 -1.5757937364764034 Z M 1.416015559448677 -1.527374068883527 L 1.3675958918558004 -1.527374068883527 L 1.3675958918558004 -1.5757937364764034 L 1.416015559448677 -1.5757937364764034 Z" fill="#231f20" transform="matrix(1,0,0,1,0,0)" fill-rule="nonzero"></path></g><g clip-path="url(#SvgjsClipPath10004f3aaed3-aec3-4bd7-9db3-7bbe3d5f4937)"><path d=" M 0.6816670899989028 -1.3441961891820524 L 0.7657292828732476 -1.4621191050378464 L 0.8505365930730547 -1.3442026684631436" fill="#ffffff" transform="matrix(1,0,0,1,0,0)" fill-rule="nonzero" stroke-dasharray="none" stroke-miterlimit="10" stroke-linejoin="miter" stroke-linecap="butt" stroke-width="0.03300545787744043" stroke="#231f20"></path></g><g clip-path="url(#SvgjsClipPath10004f3aaed3-aec3-4bd7-9db3-7bbe3d5f4937)"><path d=" M 0.8474910401208382 -0.2713265537109537 L 0.6846667063045684 -0.2713265537109537 L 0.6846667063045684 -1.3363065487916854 L 0.8474910401208382 -1.3363065487916854 Z" fill="#67c5f0" transform="matrix(1,0,0,1,0,0)" fill-rule="nonzero"></path></g><g clip-path="url(#d81419f2f-e0e3-48e8-84ae-42009652f85c4f3aaed3-aec3-4bd7-9db3-7bbe3d5f4937)"><path d=" M 0.8474910401208382 -0.2713265537109537 L 0.6846667063045684 -0.2713265537109537 L 0.6846667063045684 -1.3363065487916854 L 0.8474910401208382 -1.3363065487916854 Z" fill="none" transform="matrix(1,0,0,1,0,0)" fill-rule="nonzero" stroke-dasharray="none" stroke-miterlimit="10" stroke-linejoin="miter" stroke-linecap="butt" stroke-width="0.03300545787744043" stroke="#231f20"></path></g><g clip-path="url(#SvgjsClipPath10004f3aaed3-aec3-4bd7-9db3-7bbe3d5f4937)"><path d=" M 0.8474910401208382 -0.4030697761338029 L 0.6846667063045684 -0.4030697761338029 L 0.6846667063045684 -0.515135421883353 L 0.8474910401208382 -0.515135421883353 Z" fill="#f03f52" transform="matrix(1,0,0,1,0,0)" fill-rule="nonzero" stroke-dasharray="none" stroke-miterlimit="10" stroke-linejoin="miter" stroke-linecap="butt" stroke-width="0.03300545787744043" stroke="#231f20"></path></g><g clip-path="url(#SvgjsClipPath10004f3aaed3-aec3-4bd7-9db3-7bbe3d5f4937)"><path d=" M 4.707375982616038 -1.4217387993151256 L 4.707375982616038 -1.2160864174874932" fill="none" transform="matrix(1,0,0,1,0,0)" fill-rule="nonzero" stroke-dasharray="none" stroke-miterlimit="10" stroke-linejoin="miter" stroke-linecap="butt" stroke-width="0.03300545787744043" stroke="#231f20"></path></g></g></g><defs><clipPath id="SvgjsClipPath1002"><path d=" M 0.5653280675303956 -5.490423108539495 h 4.920463249704834 v 5.240423108539495 h -4.920463249704834 Z"></path></clipPath><clipPath id="a81419f2f-e0e3-48e8-84ae-42009652f85c4f3aaed3-aec3-4bd7-9db3-7bbe3d5f4937"><path d=" M 0.565331307170941 -0.25000323964054516 L 5.485788077594685 -0.25000323964054516 L 5.485788077594685 -5.490419868898949 L 0.565331307170941 -5.490419868898949 Z"></path></clipPath><clipPath id="SvgjsClipPath10004f3aaed3-aec3-4bd7-9db3-7bbe3d5f4937"><path d=" M 0.5653280675303956 -5.490423108539495 L 5.48579131723523 -5.490423108539495 L 5.48579131723523 -0.25 L 0.5653280675303956 -0.25 Z"></path></clipPath><clipPath id="b81419f2f-e0e3-48e8-84ae-42009652f85c4f3aaed3-aec3-4bd7-9db3-7bbe3d5f4937"><path d=" M 0.565331307170941 -0.25000323964054516 L 5.485788077594685 -0.25000323964054516 L 5.485788077594685 -5.490419868898949 L 0.565331307170941 -5.490419868898949 Z"></path></clipPath><clipPath id="c81419f2f-e0e3-48e8-84ae-42009652f85c4f3aaed3-aec3-4bd7-9db3-7bbe3d5f4937"><path d=" M 0.565331307170941 -0.25000323964054516 L 5.485788077594685 -0.25000323964054516 L 5.485788077594685 -5.490419868898949 L 0.565331307170941 -5.490419868898949 Z"></path></clipPath><clipPath id="d81419f2f-e0e3-48e8-84ae-42009652f85c4f3aaed3-aec3-4bd7-9db3-7bbe3d5f4937"><path d=" M 0.565331307170941 -0.25000323964054516 L 5.485788077594685 -0.25000323964054516 L 5.485788077594685 -5.490419868898949 L 0.565331307170941 -5.490419868898949 Z"></path></clipPath></defs></svg>